<?xml version="1.0" encoding="UTF-8"?>
<svg width="8px" height="8px" viewBox="0 0 8 8" version="1.1" xmlns="http://www.w3.org/2000/svg" xmlns:xlink="http://www.w3.org/1999/xlink">
    <title>Path</title>
    <g id="Page-1" stroke="none" stroke-width="1" fill="none" fill-rule="evenodd">
        <g id="Android-Copy-13" transform="translate(-198.000000, -100.000000)" fill="#2B0C6F">
            <path d="M204.697611,104.835139 L202.835139,104.835139 L202.835139,106.697611 C202.835139,107.140606 202.475745,107.5 202.032751,107.5 L201.967249,107.5 C201.524255,107.5 201.164861,107.140606 201.164861,106.697611 L201.164861,104.835139 L199.302389,104.835139 C198.859394,104.835139 198.5,104.475745 198.5,104.032751 L198.5,103.967249 C198.5,103.524255 198.859394,103.164861 199.302389,103.164861 L201.164861,103.164861 L201.164861,101.302389 C201.164861,100.859394 201.524255,100.5 201.967249,100.5 L202.032751,100.5 C202.475745,100.5 202.835139,100.859394 202.835139,101.302389 L202.835139,103.164861 L204.697611,103.164861 C205.140606,103.164861 205.5,103.524255 205.5,103.967249 L205.5,104.032751 C205.5,104.475745 205.140606,104.835139 204.697611,104.835139 Z" id="Path"></path>
        </g>
    </g>
</svg>