<?xml version="1.0" encoding="UTF-8"?>
<svg width="130px" height="37px" viewBox="0 0 130 37" version="1.1" xmlns="http://www.w3.org/2000/svg" xmlns:xlink="http://www.w3.org/1999/xlink">
    <title>Logo</title>
    <g id="Page-1" stroke="none" stroke-width="1" fill="none" fill-rule="evenodd">
        <g id="Android" transform="translate(-115.000000, -240.000000)" fill="#FFFFFF" fill-rule="nonzero">
            <path d="M243.926318,261.829271 C244.650148,261.15538 245,260.16861 245,258.880996 C245,257.148132 244.674276,255.535606 244.010765,254.067485 C243.347253,252.599364 242.418337,251.323784 241.224016,250.276845 C240.029696,249.217873 238.606162,248.387542 236.965479,247.785854 C235.312732,247.184165 233.491091,246.88332 231.488493,246.88332 C229.703044,246.88332 227.96585,247.160097 226.264848,247.701617 C224.563846,248.255171 223.043801,249.097535 221.716778,250.252778 C220.96882,250.902602 220.293244,251.672764 219.702116,252.527162 C219.71418,252.382756 219.726244,252.238351 219.726244,252.093946 C219.726244,251.191412 219.545286,250.373116 219.18337,249.663123 C218.821455,248.941096 218.338901,248.327374 217.735709,247.797887 L199.85709,247.797887 C198.867854,247.797887 198.083705,248.086698 197.50464,248.676353 C196.913512,249.266008 196.623979,250.216677 196.623979,251.540392 C196.623979,251.961574 196.660171,252.346655 196.72049,252.731736 C196.153489,251.829203 195.477914,251.010906 194.669636,250.288879 C193.475316,249.229907 192.051782,248.399576 190.411099,247.797887 C188.758352,247.196199 186.936711,246.895354 184.934113,246.895354 C183.148664,246.895354 181.41147,247.172131 179.710468,247.713651 C178.009465,248.267205 176.489421,249.109569 175.162398,250.264812 C173.907758,251.359885 172.882331,252.74377 172.086117,254.404431 C172.037862,254.296127 172.00167,254.187823 171.953415,254.091553 C171.289903,252.623432 170.360987,251.347852 169.166667,250.300913 C167.972346,249.241941 166.548812,248.41161 164.908129,247.809921 C163.255382,247.208232 161.433742,246.907388 159.431143,246.907388 C157.645694,246.907388 155.9085,247.184165 154.207498,247.725685 C152.506496,248.279238 150.986451,249.121603 149.659428,250.276845 C148.537491,251.251581 147.596511,252.466993 146.836488,253.911046 C146.595212,252.503094 146.233296,251.203446 145.738679,250.012102 C144.797699,247.749752 143.458612,245.872483 141.733482,244.380295 C140.008352,242.888106 137.945434,241.780999 135.544729,241.071006 C133.144024,240.34898 130.46585,240 127.510208,240 C126.07461,240 124.445991,240.084236 122.62435,240.252709 C120.80271,240.385081 119.07758,240.73406 117.448961,241.263547 C116.688938,241.52829 116.09781,241.877269 115.651448,242.310485 C115.217149,242.743701 115,243.357424 115,244.151653 L115,270.613928 C115,272.575434 116.037491,273.959318 118.124536,274.753548 C118.884558,275.054392 119.7049,275.295068 120.597624,275.46354 C121.490349,275.632013 122.37101,275.776419 123.263734,275.884723 C124.156459,275.993027 125.012992,276.077263 125.845397,276.113364 C126.677803,276.149466 127.413697,276.173533 128.065145,276.173533 C130.900148,276.173533 133.493875,275.800486 135.846325,275.042358 C138.198775,274.28423 140.213437,273.141021 141.890312,271.612732 C143.57925,270.084442 144.870082,268.195139 145.77487,265.944823 C145.786934,265.932789 145.786934,265.908722 145.798998,265.884654 C145.967892,266.522444 146.185041,267.148201 146.426318,267.725822 C147.234595,269.615125 148.356533,271.179516 149.780067,272.431029 C151.203601,273.682541 152.868411,274.609142 154.774499,275.234899 C156.680586,275.860655 158.755568,276.173533 160.987379,276.173533 C162.314402,276.173533 163.737936,276.065229 165.245917,275.836587 C166.753898,275.607946 168.117112,275.17473 169.335561,274.53694 C170.927988,273.706609 171.724202,272.443062 171.724202,270.7463 C171.724202,269.988172 171.519117,269.278179 171.096882,268.592254 C170.674647,267.918362 170.167966,267.388876 169.564774,267.003795 C168.696177,267.533281 167.562175,267.990565 166.186897,268.38768 C164.799555,268.784794 163.339829,268.977335 161.783593,268.977335 C160.118782,268.977335 158.634929,268.664456 157.356162,268.0387 C156.06533,267.412944 155.220861,266.486343 154.798627,265.23483 L168.828879,263.140953 C169.564774,263.032649 170.204157,262.840108 170.759094,262.575365 C170.891797,264.50077 171.27784,266.2216 171.929287,267.737856 C172.737565,269.627159 173.859503,271.19155 175.283036,272.443062 C176.70657,273.694575 178.371381,274.621176 180.277468,275.246932 C182.183556,275.872689 184.258537,276.185567 186.490349,276.185567 C187.817372,276.185567 189.240906,276.077263 190.748886,275.848621 C192.256867,275.619979 193.620082,275.186764 194.83853,274.548973 C195.670935,274.115757 196.286192,273.562204 196.684298,272.876278 C196.744618,273.056785 196.829065,273.237292 196.913512,273.405765 C197.275427,274.127791 197.757981,274.741514 198.361173,275.271 L217.156644,275.271 C218.14588,275.271 218.93003,274.982189 219.509094,274.392534 C220.100223,273.802879 220.389755,272.852211 220.389755,271.528495 C220.389755,271.311887 220.377691,271.095279 220.365627,270.890705 C220.81199,271.456293 221.306607,271.961711 221.837416,272.443062 C223.26095,273.694575 224.925761,274.621176 226.831849,275.246932 C228.737936,275.872689 230.812918,276.185567 233.044729,276.185567 C234.371752,276.185567 235.795286,276.077263 237.303267,275.848621 C238.811247,275.619979 240.174462,275.186764 241.39291,274.548973 C242.985338,273.718643 243.781552,272.455096 243.781552,270.758334 C243.781552,270.000206 243.576466,269.290213 243.154232,268.604288 C242.731997,267.930396 242.225316,267.40091 241.622123,267.015829 C240.753526,267.545315 239.619525,268.002599 238.244246,268.399713 C236.856904,268.796828 235.397179,268.989368 233.840943,268.989368 C232.176132,268.989368 230.692279,268.67649 229.413512,268.050734 C228.12268,267.424977 227.278211,266.498377 226.855976,265.246864 L240.886229,263.152987 C242.201188,262.948412 243.202487,262.515197 243.926318,261.829271 Z M135.790224,262.762776 C135.355144,264.018472 134.750865,265.046947 133.965303,265.836241 C133.191826,266.625536 132.261237,267.211527 131.173535,267.582257 C130.097919,267.952986 128.901448,268.14433 127.620377,268.14433 C127.088612,268.14433 126.52059,268.120412 125.916311,268.060617 C125.312032,268.000822 124.792353,267.941027 124.381443,267.869273 L124.381443,248.268458 C124.949465,248.196704 125.505402,248.136909 126.061338,248.101032 C126.605189,248.065155 127.14904,248.041237 127.680805,248.041237 C130.339631,248.041237 132.454606,248.890327 134.049902,250.600465 C135.645197,252.310603 136.442845,254.845913 136.442845,258.230312 C136.454931,259.988286 136.225305,261.50708 135.790224,262.762776 Z M153.865979,258.762887 C153.900898,258.117004 154.017293,257.471122 154.226804,256.851074 C154.424676,256.21811 154.727303,255.649733 155.134686,255.145945 C155.530429,254.642156 156.054207,254.228791 156.69438,253.892933 C157.334553,253.569991 158.091121,253.402062 158.964084,253.402062 C160.314267,253.402062 161.338543,253.802509 162.036914,254.616321 C162.735284,255.430133 163.131028,256.243945 163.247423,257.044839 L153.865979,258.762887 Z M179.329897,258.762887 C179.364815,258.117004 179.481211,257.471122 179.690722,256.851074 C179.888593,256.21811 180.19122,255.649733 180.598603,255.145945 C180.994347,254.642156 181.518124,254.228791 182.158297,253.892933 C182.79847,253.569991 183.555038,253.402062 184.428001,253.402062 C185.778184,253.402062 186.802461,253.802509 187.500831,254.616321 C188.199202,255.430133 188.594945,256.243945 188.71134,257.044839 L179.329897,258.762887 Z M198.894108,265.883318 C198.355226,266.504217 197.902075,267.183693 197.534656,267.898313 C197.497914,267.968604 197.461172,268.050609 197.42443,268.132615 C197.363193,268.003749 197.28971,267.886598 197.216226,267.769447 C196.78757,267.113402 196.273182,266.597938 195.660817,266.223055 C194.77901,266.738519 193.627762,267.183693 192.231568,267.570291 C190.823127,267.956888 189.341202,268.14433 187.761298,268.14433 C186.071169,268.14433 184.564749,267.839738 183.266534,267.230553 C181.956071,266.621368 181.098759,265.719306 180.670103,264.500937 L194.91373,262.462512 C196.224193,262.27507 197.24072,261.853327 197.975559,261.197282 C198.710398,260.541237 199.06557,259.5806 199.06557,258.327085 C199.06557,257.061856 198.881861,255.866917 198.502194,254.742268 L208.814433,254.742268 L198.894108,265.883318 Z M208.814433,268.14433 L218.803626,256.145559 C218.816254,256.120325 218.841512,256.107708 218.85414,256.082474 C218.424769,257.558664 218.210083,259.224108 218.210083,261.078808 C218.210083,263.728379 218.639455,266.049907 219.485568,268.030777 C219.498197,268.068628 219.523454,268.106479 219.536082,268.14433 L208.814433,268.14433 Z M226.237113,258.762887 C226.272032,258.117004 226.388427,257.471122 226.597938,256.851074 C226.79581,256.21811 227.098437,255.649733 227.50582,255.145945 C227.901563,254.642156 228.425341,254.228791 229.065514,253.892933 C229.705687,253.569991 230.462255,253.402062 231.335218,253.402062 C232.685401,253.402062 233.709677,253.802509 234.408048,254.616321 C235.106418,255.430133 235.502162,256.243945 235.618557,257.044839 L226.237113,258.762887 Z" id="Logo"></path>
        </g>
    </g>
</svg>