<?xml version="1.0" encoding="UTF-8"?>
<svg width="21px" height="18px" viewBox="0 0 21 18" version="1.1" xmlns="http://www.w3.org/2000/svg" xmlns:xlink="http://www.w3.org/1999/xlink">
    <title>Fill 1</title>
    <g id="Page-1" stroke="none" stroke-width="1" fill="none" fill-rule="evenodd">
        <g id="NO-RESULT" transform="translate(-144.000000, -482.000000)" fill="#000000" stroke="#979797">
            <g id="Group-2" transform="translate(124.000000, 468.000000)">
                <g id="Group" transform="translate(21.301093, 15.000000)">
                    <path d="M17.8578551,6.30110987 L10.3348118,0.391467591 C9.66938294,-0.130489197 8.73901477,-0.130489197 8.07358588,0.391467591 L0.550542603,6.30110987 C-0.0743972268,6.79225977 -0.183541648,7.69974282 0.30672805,8.32556284 C0.545261422,8.62835059 0.885897639,8.82023353 1.26878331,8.86600377 C1.65078878,8.91177401 2.02839327,8.80615038 2.33118102,8.567617 L2.70878551,8.27187083 L2.70878551,14.3645941 C2.70878551,15.2667959 3.44198956,16 4.34419143,16 L14.0642063,16 C14.965528,16 15.6996122,15.2667959 15.6996122,14.3645941 L15.6996122,8.27187083 L16.0772167,8.567617 C16.3800044,8.80615038 16.7567287,8.91177401 17.1387342,8.86600377 C17.5216199,8.82023353 17.8631363,8.62835059 18.1007895,8.32556284 C18.3384426,8.0218949 18.4440663,7.64517061 18.398296,7.26316513 C18.3525258,6.88027946 18.1606429,6.53964325 17.8578551,6.30110987 Z" id="Fill-1"></path>
                </g>
            </g>
        </g>
    </g>
</svg>