<?xml version="1.0" encoding="UTF-8"?>
<svg width="7px" height="8px" viewBox="0 0 7 8" version="1.1" xmlns="http://www.w3.org/2000/svg" xmlns:xlink="http://www.w3.org/1999/xlink">
    <title>Fill 1</title>
    <g id="Page-1" stroke="none" stroke-width="1" fill="none" fill-rule="evenodd">
        <g id="Android-Copy-6" transform="translate(-278.000000, -405.000000)" fill="#FFFFFF">
            <g id="Group" transform="translate(272.000000, 352.000000)">
                <path d="M13,56.5186488 C13,56.3480214 12.9336529,56.1886537 12.8143142,56.0686949 L9.94803168,53.18795 C9.88857775,53.127754 9.81878401,53.08055 9.74252789,53.0493693 C9.66454846,53.0168895 9.58312243,53 9.49954227,53 C9.41639293,53 9.33453607,53.0164564 9.2591416,53.0480702 C9.18073135,53.0801169 9.1109376,53.127321 9.05234533,53.1870839 L6.18520118,56.0686949 C5.93833813,56.3164077 5.93833813,56.7195908 6.18477035,56.9677367 C6.43206423,57.2158826 6.83316283,57.2158826 7.07959505,56.9681698 L8.86665951,55.1722514 L8.86665951,60.3638283 C8.86665951,60.7146105 9.15014273,61 9.49954227,61 C9.84808015,61 10.1319942,60.7146105 10.1319942,60.3638283 L10.1319942,55.1722514 L11.9190587,56.9686028 C12.1659217,57.2163157 12.5674511,57.2158826 12.8143142,56.9681698 C12.933222,56.8482109 13,56.687977 13,56.5186488 Z" id="Fill-1" transform="translate(9.500000, 57.000000) rotate(-180.000000) translate(-9.500000, -57.000000) "></path>
            </g>
        </g>
    </g>
</svg>