<?xml version="1.0" encoding="UTF-8"?>
<svg width="8px" height="7px" viewBox="0 0 8 7" version="1.1" xmlns="http://www.w3.org/2000/svg" xmlns:xlink="http://www.w3.org/1999/xlink">
    <title>Fill 1 Copy</title>
    <g id="Page-1" stroke="none" stroke-width="1" fill="none" fill-rule="evenodd">
        <g id="Android-Copy-4" transform="translate(-336.000000, -108.000000)" fill="#FFFFFF">
            <path d="M343.15683,111.078818 C343.15683,110.929519 343.098475,110.790072 342.993511,110.685108 L340.47248,108.164456 C340.420188,108.111785 340.358801,108.070481 340.29173,108.043198 C340.223143,108.014778 340.151525,108 340.078013,108 C340.004879,108 339.932882,108.014399 339.866569,108.042061 C339.797603,108.070102 339.736216,108.111406 339.684682,108.163698 L337.162893,110.685108 C336.945765,110.901857 336.945765,111.254642 337.162514,111.47177 C337.380021,111.688897 337.732806,111.688897 337.949555,111.472149 L339.521362,109.90072 L339.521362,114.44335 C339.521362,114.750284 339.770699,115 340.078013,115 C340.384568,115 340.634284,114.750284 340.634284,114.44335 L340.634284,109.90072 L342.206091,111.472527 C342.423219,111.689276 342.776383,111.688897 342.993511,111.472149 C343.098096,111.367185 343.15683,111.22698 343.15683,111.078818 Z" id="Fill-1-Copy" transform="translate(340.078415, 111.500000) rotate(-270.000000) translate(-340.078415, -111.500000) "></path>
        </g>
    </g>
</svg>