<?xml version="1.0" encoding="UTF-8"?>
<svg width="19px" height="18px" viewBox="0 0 19 18" version="1.1" xmlns="http://www.w3.org/2000/svg" xmlns:xlink="http://www.w3.org/1999/xlink">
    <title>Fill 1</title>
    <g id="Page-1" stroke="none" stroke-width="1" fill="none" fill-rule="evenodd">
        <g id="Android-Copy-7" transform="translate(-69.000000, -191.000000)" fill="#DAD8DF">
            <g id="Group-9" transform="translate(-5.000000, -2.000000)">
                <g id="Group-3" transform="translate(74.000000, 193.000000)">
                    <path d="M7.4695836,17.494971 L0.518633239,10.2511476 C0.499813115,10.2413639 0.490403054,10.2216412 0.480992992,10.2120128 C0.226304272,9.94661041 0.0660246955,9.60247251 0.0188201235,9.2584899 C0.0188201235,9.22898349 0.00956432505,9.19947708 0.00956432505,9.17012597 C0,9.11111315 0,9.05210034 0,8.99308752 L0.00956432505,8.82614336 C0.00956432505,8.79648166 0.0188201235,8.76713054 0.0188201235,8.73746884 C0.0660246955,8.38370253 0.226304272,8.04965892 0.480992992,7.78425654 C0.490403054,7.77431754 0.50937744,7.75475013 0.518633239,7.74496642 L7.4695836,0.501143059 C7.79014275,0.166944155 8.21452111,0 8.63905373,0 C9.06343209,0 9.48781045,0.166944155 9.8083696,0.501143059 C10.4497964,1.16954087 10.4497964,2.26050151 9.8083696,2.93868302 L5.63045645,7.29289718 L17.3010927,7.29289718 C18.0989425,7.29289718 18.8134902,7.86283676 18.9683705,8.67861132 C19.0820626,9.27712553 18.8793606,9.84380387 18.5190015,10.2315802 C18.2172625,10.5460564 17.8117042,10.7327233 17.3495314,10.7327233 L5.63045645,10.7327233 L9.8083696,15.0869374 C10.4497964,15.7551799 10.4497964,16.8461406 9.8083696,17.5243221 C9.15768697,18.1633688 8.11085617,18.1633688 7.4695836,17.494971" id="Fill-1"></path>
                </g>
            </g>
        </g>
    </g>
</svg>