<?xml version="1.0" encoding="UTF-8"?>
<svg width="13px" height="13px" viewBox="0 0 13 13" version="1.1" xmlns="http://www.w3.org/2000/svg" xmlns:xlink="http://www.w3.org/1999/xlink">
    <title>Fill 1</title>
    <g id="Page-1" stroke="none" stroke-width="1" fill="none" fill-rule="evenodd">
        <g id="Android-Copy-11" transform="translate(-72.000000, -406.000000)" fill="#000000">
            <g id="Group-9-Copy" transform="translate(-7.000000, -55.000000)">
                <g id="Group-3" transform="translate(79.000000, 461.000000)">
                    <path d="M12.6949181,1.89966846 L10.7206317,0.122485892 C10.524611,-0.0540410788 10.2213745,-0.0388792531 10.0448475,0.158224481 L9.87915042,0.342332365 C9.70262345,0.538353112 9.71778527,0.840506639 9.91488901,1.0181166 L11.8880923,2.79529917 C12.0851961,2.97182614 12.3873496,2.95558133 12.5638766,2.75956058 L12.7295737,2.5754527 C12.9061006,2.37943195 12.8909388,2.07727842 12.6949181,1.89966846 L12.6949181,1.89966846 Z M0.158254154,1.89966846 L2.13254046,0.122485892 C2.32856121,-0.0540410788 2.63071473,-0.0388792531 2.80832469,0.158224481 L2.9729388,0.342332365 C3.15054876,0.538353112 3.13430395,0.840506639 2.9382832,1.0181166 L0.963996892,2.79529917 C0.767976145,2.97182614 0.465822618,2.95558133 0.28821266,2.75956058 L0.122515564,2.5754527 C-0.0540114066,2.37943195 -0.0377665933,2.07727842 0.158254154,1.89966846 L0.158254154,1.89966846 Z M7.02872718,3.41585104 L5.82444502,3.41585104 L5.82444502,6.67564357 L8.13012552,8.98132407 L8.98135374,8.12901286 L7.02872718,6.17638631 L7.02872718,3.41585104 Z M6.4265861,13.0501083 C9.75244088,13.0501083 12.4479969,10.3545523 12.4479969,7.02761452 C12.4479969,3.70284274 9.75244088,1.00728672 6.4265861,1.00728672 C3.10073133,1.00728672 0.405175315,3.70284274 0.405175315,7.02761452 C0.405175315,10.3545523 3.10073133,13.0501083 6.4265861,13.0501083 L6.4265861,13.0501083 Z" id="Fill-1"></path>
                </g>
            </g>
        </g>
    </g>
</svg>