<?xml version="1.0" encoding="UTF-8"?>
<svg width="15px" height="18px" viewBox="0 0 15 18" version="1.1" xmlns="http://www.w3.org/2000/svg" xmlns:xlink="http://www.w3.org/1999/xlink">
    <title>Fill 1</title>
    <g id="Page-1" stroke="none" stroke-width="1" fill="none" fill-rule="evenodd">
        <g id="USER-IN" transform="translate(-41.000000, -295.000000)" fill="#A49FAD">
            <g id="SIDE-NEMU" transform="translate(0.000000, 184.000000)">
                <g id="Group-3" transform="translate(40.999983, 110.999454)">
                    <path d="M5.11781832,2.53973687 C2.87952175,3.28447174 1.10566149,5.12039324 1.10566149,8.0120378 L1.10566149,11.341521 L0.169286969,13.215634 C-0.0789579879,13.7121239 -0.0530423056,14.3006827 0.239532108,14.7726209 C0.530742539,15.2438772 1.04564623,15.5309956 1.60010543,15.5309956 L13.4122007,15.5309956 C13.9666599,15.5309956 14.4815635,15.2438772 14.772774,14.7726209 C15.0646664,14.3006827 15.0912641,13.7121239 14.8437011,13.215634 L13.9066446,11.341521 L13.9066446,8.0120378 C13.9066446,5.12039324 12.1327843,3.28447174 9.89448777,2.53973687 C9.90267167,2.49540741 9.90608163,2.447668 9.90608163,2.40061058 C9.90608163,1.07618281 8.8312628,0 7.50615304,0 C6.18172528,0 5.10622446,1.07618281 5.10622446,2.40061058 C5.10622446,2.447668 5.11031641,2.49540741 5.11781832,2.53973687 Z M5.90620065,17.9193304 L9.10610543,17.9193304 C9.54803602,17.9193304 9.90608163,17.5606028 9.90608163,17.1193542 C9.90608163,16.6774236 9.54803602,16.319378 9.10610543,16.319378 L5.90620065,16.319378 C5.46427007,16.319378 5.10554247,16.6774236 5.10554247,17.1193542 C5.10554247,17.5606028 5.46427007,17.9193304 5.90620065,17.9193304 L5.90620065,17.9193304 Z" id="Fill-1"></path>
                </g>
            </g>
        </g>
    </g>
</svg>