<?xml version="1.0" encoding="UTF-8"?>
<svg width="17px" height="13px" viewBox="0 0 17 13" version="1.1" xmlns="http://www.w3.org/2000/svg" xmlns:xlink="http://www.w3.org/1999/xlink">
    <title>Group 8</title>
    <g id="Page-1" stroke="none" stroke-width="1" fill="none" fill-rule="evenodd">
        <g id="Android-Copy-11" transform="translate(-70.000000, -319.000000)" fill="#17131F">
            <g id="Group-9-Copy" transform="translate(-7.000000, -55.000000)">
                <g id="Group-8" transform="translate(77.000000, 374.000000)">
                    <path d="M4.9076243,2.609 C5.7666243,1.751 6.9166243,1.27 8.1526243,1.27 C9.3716243,1.27 10.5396243,1.768 11.3806243,2.609 C11.5016243,2.729 11.6726243,2.798 11.8276243,2.798 C11.9816243,2.798 12.1536243,2.729 12.2736243,2.609 C12.5316243,2.369 12.5316243,1.957 12.2736243,1.716 C11.1926243,0.618 9.6806243,0 8.1356243,0 C6.5736243,0 5.0966243,0.6 3.9976243,1.716 C3.7576243,1.957 3.7576243,2.369 3.9976243,2.609 C4.2556243,2.849 4.6676243,2.849 4.9076243,2.609" id="Fill-1"></path>
                    <path d="M5.7318243,3.4166 C5.4918243,3.6566 5.4918243,4.0686 5.7318243,4.3096 C5.9718243,4.5496 6.3838243,4.5496 6.6248243,4.3096 C7.4488243,3.4846 8.8568243,3.4846 9.6808243,4.3096 C9.8008243,4.4296 9.9728243,4.4976 10.1278243,4.4976 C10.2818243,4.4976 10.4538243,4.4296 10.5738243,4.3096 C10.8148243,4.0686 10.8148243,3.6566 10.5738243,3.4166 C9.2858243,2.1286 7.0368243,2.1286 5.7318243,3.4166" id="Fill-3"></path>
                    <g id="Group-7" transform="translate(0.000000, 5.511300)">
                        <path d="M15.8451243,2.541 C15.4681243,2.215 14.9871243,1.819 14.5921243,1.579 C12.8581243,0.549 10.5561243,0 8.1531243,0 C5.7321243,0 3.4481243,0.566 1.7141243,1.579 C1.3191243,1.803 0.838124303,2.215 0.461124303,2.541 C0.0831243033,2.867 -0.0718756967,3.365 0.0311243033,3.846 L0.478124303,5.889 C0.598124303,6.404 1.1301243,6.713 1.6281243,6.559 L4.5641243,5.632 C4.9761243,5.494 5.2341243,5.1 5.1821243,4.653 L4.9761243,3.039 C6.0411243,2.729 6.9171243,2.558 8.1361243,2.558 C9.4411243,2.558 10.3161243,2.747 11.3461243,3.056 L11.1751243,4.67 C11.1231243,5.1 11.3811243,5.512 11.7931243,5.648 L14.7121243,6.576 C15.2271243,6.748 15.7591243,6.422 15.8801243,5.889 L16.2921243,3.829 C16.3771243,3.365 16.2061243,2.867 15.8451243,2.541" id="Fill-5"></path>
                    </g>
                </g>
            </g>
        </g>
    </g>
</svg>