<?xml version="1.0" encoding="UTF-8"?>
<svg width="63px" height="63px" viewBox="0 0 63 63" version="1.1" xmlns="http://www.w3.org/2000/svg" xmlns:xlink="http://www.w3.org/1999/xlink">
    <title>Group 5</title>
    <g id="Page-1" stroke="none" stroke-width="1" fill="none" fill-rule="evenodd">
        <g id="Android-Copy-6" transform="translate(-148.000000, -468.000000)">
            <g id="Group-7" transform="translate(105.000000, 468.500000)">
                <g id="Group-5" transform="translate(43.500000, 0.000000)">
                    <circle id="Oval" fill="#FFFFFF" cx="31" cy="31" r="31"></circle>
                    <g id="Group-6" transform="translate(19.499885, 20.499445)">
                        <g id="Group-3"></g>
                        <path d="M2.72915767,0.470684384 C3.3806988,-0.158310688 4.16837006,-0.157458392 4.79165776,0.476650461 C5.0673427,0.732339515 5.33874682,1.0059268 5.62384957,1.29485543 L5.62384957,1.29485543 L7.80107569,3.47588306 C8.14011679,3.81168802 8.32076749,4.17476647 8.32076749,4.52506048 C8.32076749,4.87705908 8.14610995,5.23076227 7.80193185,5.5733856 L7.80193185,5.5733856 L7.22744553,6.15124286 C6.79765099,6.58420966 6.38669207,6.99586903 5.94405506,7.38963018 C5.57847286,7.75356093 5.61871258,8.06635387 5.71374683,8.35016872 C6.11186329,9.30729808 6.64782221,10.1749363 7.46203458,11.1959879 C8.94919217,13.0190508 10.5185415,14.4432389 12.2574115,15.5452587 C12.4397745,15.663728 12.6187129,15.7523668 12.7916581,15.8375965 L12.7916581,15.8375965 L12.9346375,15.9100417 C13.1272745,16.0063513 13.312206,16.1026608 13.4723088,16.2023796 C13.9663157,16.4572163 14.2497061,16.3532361 14.5579253,16.0438523 L14.5579253,16.0438523 L16.4380623,14.1722085 C17.081898,13.5295767 17.8704254,13.5295767 18.4800145,14.1773223 L18.4800145,14.1773223 L21.5022749,17.1808163 C22.1700831,17.8439033 22.1658023,18.5930722 21.4902886,19.2919556 C21.2711105,19.5246327 21.0382337,19.749639 20.8190557,19.9601564 C20.4337817,20.3300532 20.0990214,20.6530737 19.7865214,21.0246751 C19.1555282,21.6988419 18.4354939,22.000555 17.4997062,22.000555 C17.4312131,22.000555 17.3541583,21.9962935 17.2753911,21.992032 C15.5476513,21.8820857 14.0014184,21.2360447 12.8421718,20.6846087 C9.68806206,19.1649634 6.9320688,17.016323 4.64953446,14.2974961 C2.76854124,12.0448755 1.49970557,9.94140693 0.655527454,7.67685421 C0.138404146,6.29101954 -0.0645068212,5.16343082 0.0176849629,4.13129934 L0.0176849629,4.13129934 C0.0810411298,3.41963147 0.357582237,2.83069435 0.864431572,2.32613462 L0.864431572,2.32613462 Z M18.0452465,1.44462826 C18.4121982,1.07303795 19.0158417,1.06208581 19.3931189,1.41959481 C19.7719846,1.78023298 19.7823101,2.37555978 19.4169469,2.74715009 L19.4169469,2.74715009 L16.0524288,6.18846752 L18.0849599,6.15091734 C18.3383313,6.15326423 18.5789945,6.23931672 18.761676,6.4129863 C18.9451519,6.58665588 19.049201,6.8205622 19.0539666,7.07089673 C19.0634978,7.58877628 18.6433301,8.01747415 18.1191134,8.0260794 L18.1191134,8.0260794 L13.7887657,8.10587353 L13.7657319,8.10587353 C13.6481803,8.10587353 13.5306287,8.08318696 13.4186369,8.04016072 C13.3058509,7.99713447 13.2002133,7.93063936 13.1088725,7.84302228 C13.0199145,7.76009897 12.9484304,7.65761827 12.896803,7.54262085 C12.8459699,7.42840572 12.819759,7.30793223 12.8181705,7.18120038 L12.8181705,7.18120038 L12.7371552,2.91847278 C12.7315953,2.66892055 12.8269074,2.43032045 13.0032349,2.24882792 C13.1779738,2.07046457 13.4146656,1.96954847 13.6704198,1.96250781 C14.2208473,1.95155567 14.632278,2.36773682 14.6433978,2.88405178 L14.6433978,2.88405178 L14.6807284,4.88594569 Z" id="Fill-5" fill="#000000"></path>
                    </g>
                </g>
            </g>
        </g>
    </g>
</svg>