<?xml version="1.0" encoding="UTF-8"?>
<svg width="16px" height="14px" viewBox="0 0 16 14" version="1.1" xmlns="http://www.w3.org/2000/svg" xmlns:xlink="http://www.w3.org/1999/xlink">
    <title>Fill 1</title>
    <g id="Page-1" stroke="none" stroke-width="1" fill="none" fill-rule="evenodd">
        <g id="USER-IN" transform="translate(-42.000000, -344.000000)" fill="#A49FAD">
            <g id="SIDE-NEMU" transform="translate(0.000000, 184.000000)">
                <g id="Group-3" transform="translate(41.999900, 160.000000)">
                    <path d="M7.987,13.659 C7.558,13.659 7.154,13.492 6.851,13.188 L1.32,7.656 C0.468,6.805 0,5.68 0,4.488 C0,3.295 0.468,2.17 1.32,1.318 C2.17,0.468 3.3,0 4.501,0 C5.702,0 6.831,0.468 7.682,1.319 L7.854,1.49 C7.911,1.548 7.978,1.556 8.013,1.556 C8.048,1.556 8.114,1.548 8.172,1.49 L8.343,1.318 C9.195,0.468 10.323,0 11.522,0 L11.541,0 C12.732,0.005 13.846,0.472 14.679,1.317 C15.519,2.132 16,3.287 16,4.488 C16,5.68 15.532,6.805 14.681,7.656 L11.671,10.667 C11.616,10.721 11.561,10.768 11.511,10.811 C11.473,10.845 11.437,10.875 11.413,10.898 L9.123,13.188 C8.82,13.492 8.417,13.659 7.987,13.659" id="Fill-1"></path>
                </g>
            </g>
        </g>
    </g>
</svg>