<?xml version="1.0" encoding="UTF-8"?>
<svg width="18px" height="18px" viewBox="0 0 18 18" version="1.1" xmlns="http://www.w3.org/2000/svg" xmlns:xlink="http://www.w3.org/1999/xlink">
    <title>facebook</title>
    <g id="Page-1" stroke="none" stroke-width="1" fill="none" fill-rule="evenodd">
        <g id="USER-IN" transform="translate(-41.000000, -567.000000)" fill="#FFFFFF" fill-rule="nonzero">
            <g id="SIDE-NEMU" transform="translate(0.000000, 184.000000)">
                <g id="facebook" transform="translate(41.000000, 383.000000)">
                    <path d="M9,0 C4.02954574,0 0,4.0502567 0,9.04625922 C0,13.5817247 3.32386357,17.326465 7.6549093,17.9806743 L7.6549093,11.4439289 L5.42822713,11.4439289 L5.42822713,9.06599661 L7.6549093,9.06599661 L7.6549093,7.48372383 C7.6549093,4.8640093 8.92472713,3.71390087 11.0908636,3.71390087 C12.1283178,3.71390087 12.6769093,3.79120539 12.9366822,3.82656757 L12.9366822,5.90227278 L11.4590457,5.90227278 C10.5394093,5.90227278 10.2182729,6.77852687 10.2182729,7.76621348 L10.2182729,9.06599661 L12.9133636,9.06599661 L12.5476364,11.4439289 L10.2182729,11.4439289 L10.2182729,18 C14.6110907,17.4008911 18,13.6257222 18,9.04625922 C18,4.0502567 13.9704543,0 9,0" id="Fill-1"></path>
                </g>
            </g>
        </g>
    </g>
</svg>