<?xml version="1.0" encoding="UTF-8"?>
<svg width="19px" height="16px" viewBox="0 0 19 16" version="1.1" xmlns="http://www.w3.org/2000/svg" xmlns:xlink="http://www.w3.org/1999/xlink">
    <title>Fill 1</title>
    <g id="Page-1" stroke="none" stroke-width="1" fill="none" fill-rule="evenodd">
        <g id="Android-Copy-6" transform="translate(-272.000000, -352.000000)" fill="#FFFFFF">
            <g id="Group" transform="translate(272.000000, 352.000000)">
                <path d="M5.34464232,1.29142131 C4.26814698,1.29142131 3.25518485,1.70618784 2.49207244,2.45893847 C1.72967388,3.21168911 1.3092125,4.20526362 1.3092125,5.25728369 C1.3092125,6.30930376 1.72967388,7.30287827 2.49207244,8.05492474 L9.06169222,14.5360444 C9.17448151,14.6473022 9.32439134,14.7085644 9.48429516,14.7085644 C9.64419898,14.7085644 9.79482266,14.6473022 9.90761196,14.5360444 L12.6274046,11.8531819 C12.6909378,11.7905114 12.7580403,11.7334742 12.8165765,11.6841827 C12.8622633,11.6454537 12.9043808,11.6095414 12.9322212,11.5813749 L16.5079276,8.05562891 C17.27104,7.30287827 17.6907875,6.30930376 17.6907875,5.25728369 C17.6907875,4.1961095 17.2624737,3.1792976 16.5150661,2.46668427 C16.5114968,2.46245929 16.5072137,2.45893847 16.5036444,2.45471349 C15.7598061,1.70970865 14.7639766,1.29636476 13.6989029,1.29142131 C12.6174106,1.28861896 11.601593,1.70196286 10.8334836,2.45893847 L10.6300346,2.65962503 C10.3323565,2.95326116 9.93616622,3.11521873 9.51499098,3.11521873 C9.09381575,3.11521873 8.69833934,2.95326116 8.3999474,2.65962503 L8.19649835,2.45893847 C7.43338593,1.70618784 6.42113766,1.29142131 5.34464232,1.29142131 M9.48429516,16 C8.97460174,16 8.49560415,15.8042426 8.13582056,15.4486401 L1.56691464,8.96892879 C0.556094079,7.97253763 0,6.65434381 0,5.25728369 C0,3.86022357 0.556094079,2.54202975 1.56691464,1.54493442 C2.57702134,0.548543262 3.91835738,0 5.34464232,0 C6.77092726,0 8.1122633,0.548543262 9.12237,1.54563859 L9.32653291,1.74632515 C9.39434926,1.81322067 9.47358732,1.82378312 9.51499098,1.82378312 C9.55639465,1.82378312 9.6356327,1.81322067 9.70416291,1.74632515 L9.90761196,1.54493442 C10.9184325,0.547839099 12.2583408,0 13.6817704,0 L13.7046138,0 C15.1187631,0.00633747029 16.4422528,0.554176569 17.4316576,1.5435261 C18.4289149,2.49766746 19,3.85106945 19,5.25728369 C19,6.65434381 18.4439059,7.97253763 17.4337992,8.96892879 L13.8588067,12.4953789 C13.7945597,12.5580495 13.728171,12.6143825 13.6689209,12.6643781 C13.623948,12.7031071 13.5811166,12.7390195 13.5532762,12.7664818 L10.8334836,15.4486401 C10.4737,15.8042426 9.99470243,16 9.48429516,16" id="Fill-1"></path>
            </g>
        </g>
    </g>
</svg>