<?xml version="1.0" encoding="UTF-8"?>
<svg width="15px" height="16px" viewBox="0 0 15 16" version="1.1" xmlns="http://www.w3.org/2000/svg" xmlns:xlink="http://www.w3.org/1999/xlink">
    <title>Fill 1</title>
    <g id="Page-1" stroke="none" stroke-width="1" fill="none" fill-rule="evenodd">
        <g id="Android-Copy-9" transform="translate(-301.000000, -417.000000)" fill="#A49FAD">
            <path d="M312.294118,426.411765 L310.052235,426.411765 C309.695529,426.411765 309.369882,426.210353 309.210824,425.891294 L308.789176,425.049882 C308.630118,424.730824 308.304471,424.529412 307.947765,424.529412 L303.823529,424.529412 C303.304,424.529412 302.882353,424.107765 302.882353,423.588235 L302.882353,419.823529 C302.882353,419.304 303.304,418.882353 303.823529,418.882353 L307.006588,418.882353 C307.363294,418.882353 307.688941,419.083765 307.848,419.402824 L308.269647,420.244235 C308.428706,420.563294 308.754353,420.764706 309.111059,420.764706 L312.294118,420.764706 C312.814588,420.764706 313.235294,421.186353 313.235294,421.705882 L313.235294,425.470588 C313.235294,425.991059 312.814588,426.411765 312.294118,426.411765 M309.210824,418.361882 L308.789176,417.520471 C308.630118,417.201412 308.304471,417 307.947765,417 L301.941176,417 C301.421647,417 301,417.421647 301,417.941176 L301,432.058824 C301,432.579294 301.421647,433 301.941176,433 C302.460706,433 302.882353,432.579294 302.882353,432.058824 L302.882353,427.352941 C302.882353,426.832471 303.304,426.411765 303.823529,426.411765 L307.006588,426.411765 C307.363294,426.411765 307.688941,426.613176 307.848,426.932235 L308.269647,427.773647 C308.428706,428.092706 308.754353,428.294118 309.111059,428.294118 L314.176471,428.294118 C314.696941,428.294118 315.117647,427.873412 315.117647,427.352941 L315.117647,419.823529 C315.117647,419.304 314.696941,418.882353 314.176471,418.882353 L310.052235,418.882353 C309.695529,418.882353 309.369882,418.680941 309.210824,418.361882" id="Fill-1"></path>
        </g>
    </g>
</svg>