<?xml version="1.0" encoding="UTF-8"?>
<svg width="23px" height="23px" viewBox="0 0 23 23" version="1.1" xmlns="http://www.w3.org/2000/svg" xmlns:xlink="http://www.w3.org/1999/xlink">
    <title>google</title>
    <defs>
        <path d="M0,8.5 C0,13.21325 3.8744186,17 8.69767442,17 L8.69767442,17 C13.0465116,17 17,13.9090909 17,8.5 L17,8.5 C17,7.99772727 16.9209302,7.45720455 16.8023256,6.95454545 L16.8023256,6.95454545 L8.69767442,6.95454545 L8.69767442,10.2390227 L13.3627907,10.2390227 C12.927907,12.325 11.1093023,13.5227273 8.69767442,13.5227273 L8.69767442,13.5227273 C5.85076744,13.5227273 3.55813953,11.2818182 3.55813953,8.5 L3.55813953,8.5 C3.55813953,5.71856818 5.85076744,3.47727273 8.69767442,3.47727273 L8.69767442,3.47727273 C9.92325581,3.47727273 11.0306279,3.90227273 11.8996047,4.59772727 L11.8996047,4.59772727 L14.4302326,2.125 C12.8883721,0.811363636 10.9112326,0 8.69767442,0 L8.69767442,0 C3.8744186,0 0,3.78636364 0,8.5 L0,8.5 Z" id="path-1"></path>
        <path d="M0,8.5 C0,13.21325 3.8744186,17 8.69767442,17 L8.69767442,17 C13.0465116,17 17,13.9090909 17,8.5 L17,8.5 C17,7.99772727 16.9209302,7.45720455 16.8023256,6.95454545 L16.8023256,6.95454545 L8.69767442,6.95454545 L8.69767442,10.2390227 L13.3627907,10.2390227 C12.927907,12.325 11.1093023,13.5227273 8.69767442,13.5227273 L8.69767442,13.5227273 C5.85076744,13.5227273 3.55813953,11.2818182 3.55813953,8.5 L3.55813953,8.5 C3.55813953,5.71856818 5.85076744,3.47727273 8.69767442,3.47727273 L8.69767442,3.47727273 C9.92325581,3.47727273 11.0306279,3.90227273 11.8996047,4.59772727 L11.8996047,4.59772727 L14.4302326,2.125 C12.8883721,0.811363636 10.9112326,0 8.69767442,0 L8.69767442,0 C3.8744186,0 0,3.78636364 0,8.5 L0,8.5 Z" id="path-3"></path>
        <path d="M0,8.5 C0,13.21325 3.8744186,17 8.69767442,17 L8.69767442,17 C13.0465116,17 17,13.9090909 17,8.5 L17,8.5 C17,7.99772727 16.9209302,7.45720455 16.8023256,6.95454545 L16.8023256,6.95454545 L8.69767442,6.95454545 L8.69767442,10.2390227 L13.3627907,10.2390227 C12.927907,12.325 11.1093023,13.5227273 8.69767442,13.5227273 L8.69767442,13.5227273 C5.85076744,13.5227273 3.55813953,11.2818182 3.55813953,8.5 L3.55813953,8.5 C3.55813953,5.71856818 5.85076744,3.47727273 8.69767442,3.47727273 L8.69767442,3.47727273 C9.92325581,3.47727273 11.0306279,3.90227273 11.8996047,4.59772727 L11.8996047,4.59772727 L14.4302326,2.125 C12.8883721,0.811363636 10.9112326,0 8.69767442,0 L8.69767442,0 C3.8744186,0 0,3.78636364 0,8.5 L0,8.5 Z" id="path-5"></path>
        <path d="M0,8.5 C0,13.21325 3.8744186,17 8.69767442,17 L8.69767442,17 C13.0465116,17 17,13.9090909 17,8.5 L17,8.5 C17,7.99772727 16.9209302,7.45720455 16.8023256,6.95454545 L16.8023256,6.95454545 L8.69767442,6.95454545 L8.69767442,10.2390227 L13.3627907,10.2390227 C12.927907,12.325 11.1093023,13.5227273 8.69767442,13.5227273 L8.69767442,13.5227273 C5.85076744,13.5227273 3.55813953,11.2818182 3.55813953,8.5 L3.55813953,8.5 C3.55813953,5.71856818 5.85076744,3.47727273 8.69767442,3.47727273 L8.69767442,3.47727273 C9.92325581,3.47727273 11.0306279,3.90227273 11.8996047,4.59772727 L11.8996047,4.59772727 L14.4302326,2.125 C12.8883721,0.811363636 10.9112326,0 8.69767442,0 L8.69767442,0 C3.8744186,0 0,3.78636364 0,8.5 L0,8.5 Z" id="path-7"></path>
    </defs>
    <g id="Page-1" stroke="none" stroke-width="1" fill="none" fill-rule="evenodd">
        <g id="log" transform="translate(-67.000000, -332.000000)">
            <g id="Group-4" transform="translate(35.000000, 320.000000)">
                <g id="google" transform="translate(32.000000, 12.000000)">
                    <circle id="Oval" fill="#FFFFFF" cx="11.5" cy="11.5" r="11.5"></circle>
                    <g id="Group-3" transform="translate(3.000000, 3.000000)">
                        <mask id="mask-2" fill="white">
                            <use xlink:href="#path-1"></use>
                        </mask>
                        <g id="Clip-2"></g>
                        <polygon id="Fill-1" fill="#FBBC05" mask="url(#mask-2)" points="-0.739130435 14.0434783 -0.739130435 3.69565217 5.91304348 8.86956522"></polygon>
                    </g>
                    <g id="Group-6" transform="translate(3.000000, 3.000000)">
                        <mask id="mask-4" fill="white">
                            <use xlink:href="#path-3"></use>
                        </mask>
                        <g id="Clip-5"></g>
                        <polygon id="Fill-4" fill="#EA4335" mask="url(#mask-4)" points="-0.739130435 3.66485507 6.06702899 8.86956522 8.86956522 6.42735507 18.4782609 4.86594203 18.4782609 -0.739130435 -0.739130435 -0.739130435"></polygon>
                    </g>
                    <g id="Group-9" transform="translate(3.000000, 3.000000)">
                        <mask id="mask-6" fill="white">
                            <use xlink:href="#path-5"></use>
                        </mask>
                        <g id="Clip-8"></g>
                        <polygon id="Fill-7" fill="#34A853" mask="url(#mask-6)" points="-0.739130435 13.504529 11.2717391 4.65036232 14.4346014 5.03532609 18.4782609 -0.739130435 18.4782609 17.7391304 -0.739130435 17.7391304"></polygon>
                    </g>
                    <g id="Group-12" transform="translate(3.000000, 3.000000)">
                        <mask id="mask-8" fill="white">
                            <use xlink:href="#path-7"></use>
                        </mask>
                        <g id="Clip-11"></g>
                        <polygon id="Fill-10" fill="#4285F4" mask="url(#mask-8)" points="18.4782609 17.7391304 6.03975155 8.62984724 4.43478261 7.49118684 18.4782609 3.69565217"></polygon>
                    </g>
                </g>
            </g>
        </g>
    </g>
</svg>