<?xml version="1.0" encoding="UTF-8"?>
<svg width="15px" height="15px" viewBox="0 0 15 15" version="1.1" xmlns="http://www.w3.org/2000/svg" xmlns:xlink="http://www.w3.org/1999/xlink">
    <title>Group</title>
    <g id="Page-1" stroke="none" stroke-width="1" fill="none" fill-rule="evenodd">
        <g id="USER-IN" transform="translate(-43.000000, -427.000000)" fill="#FFFFFF">
            <g id="SIDE-NEMU" transform="translate(0.000000, 184.000000)">
                <g id="Group" transform="translate(43.000000, 243.000000)">
                    <path d="M7.359,0 C3.2948681,0 0,3.2948681 0,7.359 C0,11.4231319 3.2948681,14.718 7.359,14.718 C11.4231319,14.718 14.718,11.4231319 14.718,7.359 C14.718,3.2948681 11.4231319,0 7.359,0 Z M6.50876106,10.5354804 L6.50876106,7.16681217 L6.50876106,7.16681217 C6.50876106,6.86289916 6.67071133,6.58204868 6.93362428,6.43034842 C7.19704972,6.27813566 7.52095028,6.27813566 7.78437572,6.43034842 C8.04728867,6.58204868 8.20923894,6.86289916 8.20923894,7.16681217 L8.20923894,10.5354804 L8.20923894,10.5354804 C8.20923894,10.8393934 8.04728867,11.1202439 7.78437572,11.2719441 C7.52095028,11.4241569 7.19704972,11.4241569 6.93362428,11.2719441 C6.67071133,11.1202439 6.50876106,10.8393934 6.50876106,10.5354804 Z M7.359,5.38843415 L7.359,5.38843415 C7.08788704,5.38843415 6.8280491,5.28080897 6.63637377,5.08913364 C6.44469845,4.89745832 6.33707326,4.63762038 6.33707326,4.36650742 C6.33707326,4.09539446 6.44469845,3.83504401 6.63637377,3.64336869 C6.8280491,3.45169336 7.08788704,3.34406818 7.359,3.34406818 C7.63011296,3.34406818 7.8899509,3.45169336 8.08162623,3.64336869 C8.27330155,3.83504401 8.38143924,4.09539446 8.38143924,4.36650742 C8.38143924,4.63762038 8.27330155,4.89745832 8.08162623,5.08913364 C7.8899509,5.28080897 7.63011296,5.38843415 7.359,5.38843415 L7.359,5.38843415 Z" id="Shape"></path>
                </g>
            </g>
        </g>
    </g>
</svg>