<?xml version="1.0" encoding="UTF-8"?>
<svg width="90px" height="90px" viewBox="0 0 90 90" version="1.1" xmlns="http://www.w3.org/2000/svg" xmlns:xlink="http://www.w3.org/1999/xlink">
    <title>Group 8</title>
    <defs>
        <polygon id="path-1" points="0 0 90 0 90 90 0 90"></polygon>
    </defs>
    <g id="Page-1" stroke="none" stroke-width="1" fill="none" fill-rule="evenodd">
        <g id="NO-RESULT" transform="translate(-132.000000, -246.000000)">
            <g id="Group-8" transform="translate(132.000000, 246.000000)">
                <g id="Group-3">
                    <mask id="mask-2" fill="white">
                        <use xlink:href="#path-1"></use>
                    </mask>
                    <g id="Clip-2"></g>
                    <path d="M61.5492408,60.8717112 C61.2143672,61.1155231 60.9281042,61.4080975 60.6850507,61.7385981 C55.1110244,67.1132966 47.5385585,70.4345568 39.1559143,70.4345568 C21.9585309,70.4345568 8.0990818,56.5318589 8.0990818,39.2808105 C8.0990818,22.0243441 21.9585309,8.12706425 39.1559143,8.12706425 C56.3586989,8.12706425 70.2127468,22.0243441 70.2127468,39.2808105 C70.2127468,47.684195 66.9072196,55.280291 61.5492408,60.8717112 M88.8738522,83.1236131 C88.8360439,83.0856868 88.7982356,83.0477605 88.7550261,83.0044162 L69.5375983,64.008758 C75.0198044,57.2470406 78.3145292,48.6431885 78.3145292,39.2808105 C78.3145292,17.6357294 60.7390626,0 39.1559143,0 C17.5781672,0 -0.00270059413,17.6357294 -0.00270059413,39.2808105 C-0.00270059413,60.9258916 17.5781672,78.5616211 39.1559143,78.5616211 C48.4945688,78.5616211 57.0716558,75.2511969 63.8123387,69.7573015 L83.0297665,88.7529596 C84.5799076,90.3675364 87.1400708,90.4217168 88.7550261,88.8721566 C90.3699814,87.3171783 90.4239933,84.7436079 88.8738522,83.1236131" id="Fill-1" fill="#DAD8DF" mask="url(#mask-2)"></path>
                </g>
                <path d="M41.594431,51.1013699 C41.1640436,50.7561644 40.6791768,50.4821918 40.1398305,50.290411 C39.6004843,50.0986301 39.0447942,50 38.4727603,50 C37.9007264,50 37.3450363,50.0986301 36.811138,50.290411 C36.2663438,50.4821918 35.7923729,50.7561644 35.3783293,51.1013699 C34.9642857,51.4520548 34.6319613,51.8849315 34.3813559,52.3726027 C34.1253027,52.8657534 34,53.4191781 34,54.0273973 C34,54.6356164 34.1253027,55.1835616 34.3813559,55.6767123 C34.6319613,56.1753425 34.9642857,56.5863014 35.3783293,56.9205479 C35.7923729,57.260274 36.2663438,57.5232877 36.811138,57.7150685 C37.3450363,57.9068493 37.9007264,58 38.4727603,58 C39.0447942,58 39.6004843,57.9068493 40.1398305,57.7150685 C40.6791768,57.5232877 41.1640436,57.260274 41.594431,56.9205479 C42.0248184,56.5863014 42.3625908,56.1753425 42.6186441,55.6767123 C42.8692494,55.1835616 43,54.6356164 43,54.0273973 C43,53.4191781 42.8692494,52.8657534 42.6186441,52.3726027 C42.3625908,51.8849315 42.0248184,51.4520548 41.594431,51.1013699" id="Fill-4" fill="#DAD8DF"></path>
                <path d="M49.0554234,21.2090132 C47.8244529,20.1810412 46.3746432,19.3869464 44.7059943,18.8321678 C43.0264034,18.2773893 41.237393,18 39.32255,18 C37.4405328,18 35.8320647,18.1522922 34.4916746,18.4514375 C33.1567555,18.7505828 31.9421979,19.1258741 30.8589439,19.5664336 L30,26.4630925 C31.3403901,25.8919969 32.740961,25.4242424 34.2071836,25.0598291 C35.6734063,24.6954157 37.1560419,24.5104895 38.6550904,24.5104895 C39.5468601,24.5104895 40.4222169,24.6464646 41.2866318,24.9184149 C42.1455756,25.1849262 42.9224548,25.5765346 43.6282112,26.0823621 C44.3284967,26.5881896 44.8920076,27.2136752 45.324215,27.958819 C45.7564225,28.7039627 45.9697907,29.5361305 45.9697907,30.4553225 C45.9697907,31.5975136 45.7071836,32.5602176 45.1819696,33.3543124 C44.6567555,34.1484071 43.9455281,34.7902098 43.0537583,35.2797203 C42.1619886,35.7692308 41.1225024,36.1173271 39.9462417,36.3240093 C38.76451,36.5306915 37.5390105,36.6340326 36.2642721,36.6340326 L35.6898192,36.6340326 L35.6898192,46 L42.3862988,46 L42.3862988,41.6759907 C43.8196955,41.3605284 45.1819696,40.8710179 46.4731208,40.2237762 C47.7642721,39.5710956 48.885823,38.7606838 49.8432445,37.7762238 C50.800666,36.7917638 51.5666032,35.6441336 52.1355852,34.3278943 C52.7100381,33.011655 53,31.5159285 53,29.8352758 C53,28.029526 52.6498573,26.3978244 51.9495718,24.9401709 C51.2438154,23.4825175 50.2809229,22.2369852 49.0554234,21.2090132" id="Fill-6" fill="#DAD8DF"></path>
            </g>
        </g>
    </g>
</svg>