<?xml version="1.0" encoding="UTF-8"?>
<svg width="14px" height="15px" viewBox="0 0 14 15" version="1.1" xmlns="http://www.w3.org/2000/svg" xmlns:xlink="http://www.w3.org/1999/xlink">
    <title>Fill 1</title>
    <g id="Page-1" stroke="none" stroke-width="1" fill="none" fill-rule="evenodd">
        <g id="Android-Copy-7" transform="translate(-74.000000, -300.000000)" fill="#000000">
            <g id="Group-9" transform="translate(-5.000000, -2.000000)">
                <g id="Group-3" transform="translate(78.999528, 302.000000)">
                    <path d="M4.68602044,13.1210577 L8.43505892,13.1210577 C8.43505892,14.1549569 7.59501583,14.995 6.56111663,14.995 C5.52606354,14.995 4.68602044,14.1549569 4.68602044,13.1210577 M13.1210796,11.2459615 C13.1210796,11.764065 12.701047,12.1840866 12.1840974,12.1840866 L0.936981966,12.1840866 C0.42003237,12.1840866 0,11.764065 0,11.2459615 C-0.00114308213,11.0105648 0.0900154404,10.7820916 0.251562189,10.6101597 C0.818129715,9.99628203 1.87510701,9.08815852 1.87510701,6.09146633 C1.87510701,3.81711889 3.46980421,1.99394844 5.62299159,1.54854098 L5.62299159,0.936971143 C5.62299159,0.420021547 6.04301313,0 6.56111663,0 C7.07806623,0 7.49808778,0.420021547 7.49808778,0.936971143 L7.49808778,1.54854098 C9.64896734,1.99394844 11.2471263,3.81711889 11.2471263,6.09146633 C11.2471263,9.08815852 12.3052575,9.99628203 12.8706711,10.6101597 C13.0333717,10.7832455 13.1222224,11.0105648 13.1210796,11.2459615" id="Fill-1"></path>
                </g>
            </g>
        </g>
    </g>
</svg>