<?xml version="1.0" encoding="UTF-8"?>
<svg width="13px" height="15px" viewBox="0 0 13 15" version="1.1" xmlns="http://www.w3.org/2000/svg" xmlns:xlink="http://www.w3.org/1999/xlink">
    <title>Group 7</title>
    <defs>
        <polygon id="path-1" points="0 0 12.7762635 0 12.7762635 6.71423827 0 6.71423827"></polygon>
    </defs>
    <g id="Page-1" stroke="none" stroke-width="1" fill="none" fill-rule="evenodd">
        <g id="Android-Copy-7" transform="translate(-74.000000, -400.000000)">
            <g id="Group-9" transform="translate(-5.000000, -2.000000)">
                <g id="Group-7" transform="translate(78.999879, 401.999942)">
                    <g id="Group-3" transform="translate(0.000121, 7.985820)">
                        <mask id="mask-2" fill="white">
                            <use xlink:href="#path-1"></use>
                        </mask>
                        <g id="Clip-2"></g>
                    </g>
                    <g id="Group-6" fill="#000000">
                        <path d="M3.7600834,5.97855348 C5.22318449,7.44165457 7.58632889,7.47933327 9.08657799,6.05391088 L9.12425669,6.01623218 C10.418069,4.77814193 10.5496791,2.77161846 9.40552023,1.38387478 C7.84901842,-0.492099947 4.96049496,-0.454421246 3.46024586,1.45817081 C2.41001842,2.80876648 2.52199315,4.74099392 3.7415094,5.95997948 L3.7600834,5.97855348 Z" id="Fill-4"></path>
                        <path d="M12.7252791,12.2053037 C12.2752574,9.76733254 10.1556978,7.98581991 7.68004802,7.98581991 L5.1104668,7.98581991 C2.57856427,7.98581991 0.440430696,9.82358525 0.0275570497,12.3183398 C-0.178349087,13.5744733 0.796520949,14.7000582 2.05371589,14.7000582 L10.7182249,14.7000582 C11.9939939,14.7000582 12.9688639,13.5373253 12.7443838,12.2806611 L12.7252791,12.2053037 Z" id="Fill-1"></path>
                    </g>
                </g>
            </g>
        </g>
    </g>
</svg>