<?xml version="1.0" encoding="UTF-8"?>
<svg width="12px" height="14px" viewBox="0 0 12 14" version="1.1" xmlns="http://www.w3.org/2000/svg" xmlns:xlink="http://www.w3.org/1999/xlink">
    <title>Shape</title>
    <g id="Page-1" stroke="none" stroke-width="1" fill="none" fill-rule="evenodd">
        <g id="USER-IN" transform="translate(-45.000000, -485.000000)" fill="#A49FAD">
            <g id="SIDE-NEMU" transform="translate(0.000000, 184.000000)">
                <g id="Group" transform="translate(44.000000, 273.000000)">
                    <g transform="translate(1.000000, 28.000000)" id="Shape">
                        <path d="M5.81228919,0 C5.81177592,0.000501738164 5.81177592,0.00100347633 5.81074938,0.00100347633 C5.78405925,0.00250869082 5.75788239,0.00652259614 5.73170553,0.0130451923 L0.307963044,1.39533384 C0.127291392,1.44199548 0.000513271741,1.60556213 0,1.79371394 L0,8.12163567 C0,9.88323836 1.48540842,11.3056661 2.88150755,12.3226893 C4.27760669,13.3397126 5.66549347,13.9638749 5.66549347,13.9638749 C5.772254,14.0120417 5.89441267,14.0120417 6.00117319,13.9638749 C6.00117319,13.9638749 7.38854671,13.3397126 8.78515911,12.3226893 C10.1812582,11.3056661 11.6666667,9.88323836 11.6666667,8.12163567 L11.6666667,1.79371394 C11.6661534,1.60556213 11.5393753,1.44199548 11.3587036,1.39533384 L5.93393459,0.0130451923 C5.89441267,0.00301042899 5.85335093,-0.00150521449 5.81228919,0.000501738164 L5.81228919,0 Z M5.83179352,3.03100025 C6.53856871,3.03100025 7.09854817,3.58792961 7.09854817,4.28333871 C7.09854817,4.97824607 6.53856871,5.5386876 5.83179352,5.5386876 C5.12501833,5.5386876 4.56760522,4.97824607 4.56760522,4.28333871 C4.56760522,3.58792961 5.12501833,3.03100025 5.83179352,3.03100025 Z M5.83179352,6.36203992 C7.14320282,6.36203992 8.18155155,7.39361359 8.18155155,8.68458589 L8.18155155,8.85718382 C8.18155155,8.85718382 7.35518404,9.89226965 5.83333333,9.85363581 C4.26272181,9.81399849 3.48511512,8.85718382 3.48511512,8.85718382 L3.48511512,8.68458589 C3.48511512,7.39361359 4.51987095,6.36203992 5.83179352,6.36203992 L5.83179352,6.36203992 Z"></path>
                    </g>
                </g>
            </g>
        </g>
    </g>
</svg>