<?xml version="1.0" encoding="UTF-8"?>
<svg width="18px" height="16px" viewBox="0 0 18 16" version="1.1" xmlns="http://www.w3.org/2000/svg" xmlns:xlink="http://www.w3.org/1999/xlink">
    <title>Group</title>
    <g id="Page-1" stroke="none" stroke-width="1" fill="none" fill-rule="evenodd">
        <g id="USER-IN" transform="translate(-39.000000, -200.000000)" fill="#A49FAD">
            <g id="SIDE-NEMU" transform="translate(0.000000, 184.000000)">
                <g id="Group" transform="translate(39.000000, 15.999981)">
                    <path d="M0,9.85329822 L0,6.14672519 C0,5.48067382 0.273025956,4.84178513 0.759444789,4.37039958 C1.24527898,3.89957993 1.90533531,3.63474387 2.59286962,3.63474387 L5.58153918,3.63474387 L9.14490792,0.30392115 C9.3507005,0.106991774 9.6289882,-0.0016589166 9.91838402,1.91519116e-05 C10.2071952,0.00230230648 10.483729,0.116045998 10.6865984,0.31523893 C10.8894678,0.514997751 11.0023029,0.78436092 11,1.06447598 L11,14.9361133 C11.0023029,15.2162284 10.8894678,15.4855915 10.6865984,15.6853504 C10.483729,15.8845433 10.2071952,15.9977211 9.91838402,16.0000192 C9.6289882,16.0022482 9.3507005,15.8930316 9.14490792,15.6966681 L5.58153918,12.3658454 L2.59286962,12.3658454 C1.90533531,12.3658454 1.24527898,12.1010094 0.759444789,11.6296238 C0.273025956,11.1588042 0,10.5199155 0,9.85329822 L0,9.85329822 Z M12.8508723,10.8416441 C13.5869443,10.0853756 14,9.06424164 14,8.00020287 C14,6.93559202 13.5869443,5.91445804 12.8508723,5.15876168 C12.7129994,5.00888095 12.4991559,4.95968345 12.3117614,5.03462382 C12.1238042,5.11013625 12,5.29434081 12,5.49971174 L12,10.5024102 C12.0011255,10.707209 12.1249297,10.8908415 12.3123241,10.9657819 C12.4997186,11.0401502 12.7129994,10.9909527 12.8508723,10.8416441 L12.8508723,10.8416441 Z M13.4102863,14.906981 C15.2491304,14.0222721 16.6901124,12.4515096 17.4384988,10.5151983 C18.1868853,8.57830953 18.1874488,6.4213985 17.4384988,4.4850872 C16.6901124,2.54819842 15.2491304,0.977435907 13.4102863,0.0933045054 C13.086812,-0.0591518566 12.7098011,-0.0227702247 12.4195759,0.188012245 C12.1293507,0.398794716 11.9715584,0.752216282 12.004244,1.11487763 C12.0374931,1.47811646 12.2567117,1.79515639 12.5796224,1.94761276 C13.9529791,2.61518683 15.0276576,3.79325871 15.5855661,5.24332661 C16.1434747,6.69339451 16.1434747,8.30689101 15.5855661,9.75638142 C15.0276576,11.2064493 13.9529791,12.3845212 12.5796224,13.0520953 C12.2567117,13.2045516 12.0374931,13.5215916 12.004244,13.8848304 C11.9715584,14.2480692 12.1293507,14.6009133 12.4195759,14.8122733 C12.7098011,15.0230557 13.086812,15.0588599 13.4102863,14.906981 L13.4102863,14.906981 Z" id="Shape"></path>
                </g>
            </g>
        </g>
    </g>
</svg>