<?xml version="1.0" encoding="UTF-8"?>
<svg width="9px" height="13px" viewBox="0 0 9 13" version="1.1" xmlns="http://www.w3.org/2000/svg" xmlns:xlink="http://www.w3.org/1999/xlink">
    <title>Group 9</title>
    <g id="Page-1" stroke="none" stroke-width="1" fill="none" fill-rule="evenodd">
        <g id="Android-Copy-11" transform="translate(-92.000000, -480.000000)" fill="#FFFFFF">
            <g id="Group-9" transform="translate(92.000000, 480.000000)">
                <path d="M8.75,4.39831105 C8.75,4.1850268 8.66706608,3.98581714 8.51789273,3.83586856 L4.9350396,0.234937476 C4.86072219,0.159692524 4.77348001,0.10068749 4.67815986,0.0617116873 C4.58068557,0.021111893 4.47890303,0 4.37442783,0 C4.27049116,0 4.16817009,0.0205705624 4.073927,0.0600876956 C3.97591418,0.100146159 3.888672,0.159151194 3.81543166,0.233854815 L0.23150147,3.83586856 C-0.0770773426,4.14550966 -0.0770773426,4.64948844 0.230962938,4.95967087 C0.540080283,5.2698533 1.04145354,5.2698533 1.34949382,4.9602122 L3.58332438,2.71531424 L3.58332438,9.20478536 C3.58332438,9.64326314 3.93767841,10 4.37442783,10 C4.81010019,10 5.16499275,9.64326314 5.16499275,9.20478536 L5.16499275,2.71531424 L7.39882331,4.96075353 C7.70740213,5.27039463 8.20931391,5.2698533 8.51789273,4.9602122 C8.66652755,4.81026363 8.75,4.60997131 8.75,4.39831105 Z" id="Fill-1" transform="translate(4.375000, 5.000000) rotate(-180.000000) translate(-4.375000, -5.000000) "></path>
                <rect id="Rectangle" x="0.875" y="11" width="7" height="2" rx="1"></rect>
            </g>
        </g>
    </g>
</svg>