<?xml version="1.0" encoding="UTF-8"?>
<svg width="17px" height="18px" viewBox="0 0 17 18" version="1.1" xmlns="http://www.w3.org/2000/svg" xmlns:xlink="http://www.w3.org/1999/xlink">
    <title>Fill 1</title>
    <g id="Page-1" stroke="none" stroke-width="1" fill="none" fill-rule="evenodd">
        <g id="LIST-VIEW" transform="translate(-324.000000, -46.000000)" fill="#FFFFFF">
            <g id="Group" transform="translate(0.000000, -0.000000)">
                <g id="Group-3" transform="translate(333.056500, 55.911735) rotate(-45.000000) translate(-333.056500, -55.911735) translate(326.000000, 46.000000)">
                    <path d="M7.05726197,11.5751181 C4.56688197,11.5751181 2.54003521,9.5482713 2.54003521,7.05789129 C2.54003521,4.56624133 4.56688197,2.54066453 7.05726197,2.54066453 C9.54764198,2.54066453 11.5744887,4.56624133 11.5744887,7.05789129 C11.5744887,9.5482713 9.54764198,11.5751181 7.05726197,11.5751181 M14.1143969,7.05789129 C14.1143969,3.13246314 10.8912534,-0.0563916201 6.95312574,0.000756314755 C3.33375653,0.0528244332 0.235068505,3.00419778 0.0128265365,6.61721722 C-0.187826213,9.90258849 1.87584921,12.7472857 4.78785398,13.7391199 C5.29075581,13.9105637 5.61713401,14.398226 5.61713401,14.9303368 L5.61713401,18.2919053 C5.61713401,19.1389647 6.26100075,19.82347 7.05726197,19.82347 C7.85225324,19.82347 8.49611998,19.1389647 8.49611998,18.2919053 L8.49611998,14.9290669 C8.49611998,14.3944162 8.827578,13.9092937 9.33301973,13.7365799 C12.1104094,12.7866543 14.1143969,10.1527695 14.1143969,7.05789129" id="Fill-1"></path>
                </g>
            </g>
        </g>
    </g>
</svg>