<?xml version="1.0" encoding="UTF-8"?>
<svg width="15px" height="15px" viewBox="0 0 15 15" version="1.1" xmlns="http://www.w3.org/2000/svg" xmlns:xlink="http://www.w3.org/1999/xlink">
    <title>Shape</title>
    <g id="Page-1" stroke="none" stroke-width="1" fill="none" fill-rule="evenodd">
        <g id="USER-IN" transform="translate(-44.000000, -457.000000)" fill="#A49FAD">
            <g id="SIDE-NEMU" transform="translate(0.000000, 184.000000)">
                <g id="Group" transform="translate(44.000000, 273.000000)">
                    <path d="M13.4529115,10.5392944 L14.0530012,9.07833305 C14.2134452,8.68812938 14.0277955,8.24072814 13.6366223,8.07979942 L13.3045857,7.94359168 C12.9134126,7.78266296 12.6298484,7.3793717 12.6288789,7.04054888 C12.6274248,6.70269551 12.9095347,6.29698063 13.2992537,6.13459774 L13.6308056,5.99596637 C14.0205246,5.8340682 14.2052048,5.38521279 14.0423372,4.99549384 L13.4340073,3.53792557 C13.2711396,3.14772189 12.8232537,2.96352637 12.4335347,3.12590926 L12.1019828,3.26454063 C11.7117791,3.42740825 11.2255999,3.34306609 10.9861457,3.10361191 C10.7462068,2.86464245 10.6589563,2.37943266 10.819885,1.98825954 L10.9560927,1.65719232 C11.1165367,1.26601919 10.9299176,0.819102682 10.5387445,0.65817396 L9.07826784,0.0575996055 C8.68757944,-0.102844391 8.24017821,0.0832900339 8.07973421,0.474463161 L7.94352647,0.806015105 C7.78259774,1.19718823 7.37882177,1.48123712 7.04048367,1.48220657 C6.7026303,1.48269129 6.29740015,1.20106603 6.1340478,0.81134708 L5.99638588,0.479795137 C5.83351826,0.0900761848 5.38514758,-0.0941193396 4.9949439,0.068748282 L3.53786036,0.677078238 C3.14717196,0.839461134 2.96346116,1.28783182 3.12632878,1.6780355 L3.26447542,2.00910271 C3.42734304,2.39930639 3.34251616,2.88500091 3.1035467,3.12493981 C2.86457724,3.36439399 2.37936745,3.45212923 1.98867905,3.29071578 L1.65664238,3.15499277 C1.26546926,2.99406405 0.819037471,3.18068319 0.65810875,3.57185632 L0.0575343952,5.03233294 C-0.102909601,5.42302134 0.0837095487,5.87042258 0.474397951,6.03086657 L0.80643462,6.16755904 C1.19712302,6.32848776 1.48117191,6.73177902 1.48214136,7.07011711 C1.48311081,7.40845521 1.20100082,7.81368536 0.81128187,7.97655298 L0.479729926,8.11469962 C0.0895262495,8.27756725 -0.0941845499,8.72545321 0.0686830717,9.11565688 L0.677013027,10.5727404 C0.839395924,10.9629441 1.28776661,11.1476244 1.67797029,10.984272 L2.0090375,10.8461254 C2.39924118,10.6842272 2.8849357,10.7685694 3.1248746,11.0070541 C3.36432878,11.2460235 3.45206402,11.7317181 3.29065057,12.1228912 L3.15492756,12.4534737 C2.99448356,12.8446468 3.18110271,13.2925328 3.57179111,13.4529768 L5.03226773,14.0530664 C5.42344086,14.2135104 5.87084209,14.027376 6.03128609,13.6366876 L6.16749383,13.3051356 C6.32842255,12.9139625 6.73171381,12.6303983 7.0700519,12.6289441 C7.40887472,12.6279747 7.81362015,12.9096 7.97648777,13.2998036 L8.11463441,13.6308709 C8.27750204,14.0210745 8.72538799,14.2052701 9.11559167,14.0424024 L10.5731599,13.4340725 C10.9628789,13.2712049 11.1470744,12.8233189 10.9842068,12.4335999 L10.8460602,12.102048 C10.6836773,11.7118443 10.7685041,11.2256651 11.0069889,10.9862109 C11.2459583,10.7457873 11.7311681,10.6590215 12.1223412,10.8194655 L12.4538932,10.9556732 C12.8445816,11.1166019 13.2919828,10.9299828 13.4529115,10.5392944 L13.4529115,10.5392944 Z M5.93821888,9.77342879 C4.43702535,9.15637379 3.72011698,7.43899288 4.33717199,5.93828409 C4.95471172,4.43709056 6.6716079,3.72066692 8.17328615,4.3372372 C9.67399495,4.95477693 10.3909033,6.67167311 9.77384831,8.17286663 C9.15630858,9.67357543 7.4394124,10.3909685 5.93821888,9.77342879 L5.93821888,9.77342879 Z" id="Shape"></path>
                </g>
            </g>
        </g>
    </g>
</svg>