<?xml version="1.0" encoding="UTF-8"?>
<svg width="18px" height="19px" viewBox="0 0 18 19" version="1.1" xmlns="http://www.w3.org/2000/svg" xmlns:xlink="http://www.w3.org/1999/xlink">
    <title>Fill 1</title>
    <g id="Page-1" stroke="none" stroke-width="1" fill="none" fill-rule="evenodd">
        <g id="Android-Copy-6" transform="translate(-235.000000, -489.000000)" fill="#A49FAD">
            <g id="Group-7" transform="translate(105.000000, 468.500000)">
                <path d="M133.495639,28.7445942 C134.239367,28.6963056 134.85418,29.323363 134.806797,30.0819026 C134.767733,30.7075715 134.269998,31.2152187 133.656546,31.2550607 C132.912818,31.3033878 132.298005,30.6762919 132.345388,29.9177909 C132.384452,29.292122 132.882187,28.7844747 133.495639,28.7445942 L133.495639,28.7445942 Z M143.697158,25.4045438 C143.01681,25.4045438 142.463901,24.8406241 142.463901,24.1467264 C142.463901,23.423979 143.065101,22.8413533 143.785194,22.8925345 C144.392822,22.9357706 144.884884,23.4379796 144.926898,24.0576702 C144.976588,24.791757 144.40583,25.4045438 143.697158,25.4045438 L143.697158,25.4045438 Z M143.56155,34.6026321 C144.328534,34.5186285 144.975718,35.1576423 144.927351,35.9347337 C144.888439,36.5604411 144.390591,37.0681655 143.777101,37.1077375 C143.016091,37.1568746 142.390198,36.498769 142.470897,35.7172808 C142.531138,35.1342694 142.990074,34.6652684 143.56155,34.6026321 L143.56155,34.6026321 Z M143.697158,32.205559 C143.043772,32.205559 142.405816,32.3942393 141.851697,32.7399732 C141.555258,32.9249123 141.182202,32.9256837 140.879939,32.7508497 L137.641751,30.8778157 C137.334534,30.7001276 137.151693,30.3656173 137.152336,30.0053814 L137.152336,29.999866 L137.152336,29.9943506 C137.151693,29.6345775 137.334345,29.3004915 137.641184,29.1229577 L140.879901,27.2489594 C141.182165,27.0740483 141.555295,27.0747811 141.851773,27.2597202 C142.405929,27.6054927 143.043772,27.7940573 143.697158,27.7940573 C145.715891,27.7940573 147.348901,26.0788483 147.269979,24.0024006 C147.198015,22.1098121 145.694072,20.5759938 143.838363,20.5027896 C141.802574,20.42245 140.121084,22.0879048 140.121084,24.146765 L140.121084,24.1522804 C140.121689,24.5125163 139.938773,24.8470266 139.631518,25.0247147 L136.392801,26.8978644 C136.090462,27.0726984 135.717369,27.0718884 135.420967,26.8868722 C134.867037,26.5411383 134.229459,26.3525737 133.576074,26.3525737 C131.604308,26.3525737 130,27.9889087 130,29.9999046 C130,32.0109005 131.604345,33.6472741 133.576074,33.6472741 C134.229459,33.6472741 134.867037,33.4587866 135.420967,33.1130141 C135.717407,32.9279593 136.0905,32.9271879 136.392839,33.1020219 L139.631518,34.9752488 C139.938168,35.1525897 140.121954,35.4861358 140.121084,35.8456389 L140.121084,35.8532371 C140.121084,37.9124058 141.803142,39.5780534 143.839346,39.4971739 C145.694979,39.4234297 147.198545,37.8893029 147.270017,35.9966757 C147.34841,33.9204594 145.715929,32.2055976 143.697158,32.2055976 L143.697158,32.205559 Z" id="Fill-1"></path>
            </g>
        </g>
    </g>
</svg>