<?xml version="1.0" encoding="UTF-8"?>
<svg width="66px" height="66px" viewBox="0 0 66 66" version="1.1" xmlns="http://www.w3.org/2000/svg" xmlns:xlink="http://www.w3.org/1999/xlink">
    <title>Group 5</title>
    <g id="Page-1" stroke="none" stroke-width="1" fill="none" fill-rule="evenodd">
        <g id="upload-copy-4" transform="translate(-147.000000, -238.000000)" fill="#DAD8DF">
            <g id="Group" transform="translate(40.000000, 190.000000)">
                <g id="Group-5" transform="translate(106.999726, 48.000000)">
                    <path d="M4.87958463,50.2440138 C9.48549074,57.7581258 16.7427824,63.0246027 25.3113347,65.078405 C33.879887,67.1322073 42.7350198,65.7279509 50.2459043,61.1192681 C57.7567888,56.5126473 63.0265722,49.2562916 65.0800558,40.6843478 C67.1335395,32.116528 65.7274392,23.2579591 61.1194714,15.7479713 C56.5135653,8.23385929 49.2583353,2.9653203 40.6897831,0.911518022 C34.8220978,-0.492738358 28.7008197,-0.272098956 22.9815791,1.55693982 C21.6270221,1.98997043 20.8786139,3.44165397 21.3115773,4.79642113 C21.7466025,6.15325035 23.1959991,6.89971263 24.5526178,6.46874408 C29.3729439,4.92426826 34.537579,4.73868372 39.4877941,5.92436275 C54.4126618,9.50202034 63.6430296,24.5570509 60.0679888,39.4842344 C56.4888245,54.4114178 41.4361295,63.6452799 26.5133236,60.0676223 C11.5884559,56.4879027 2.3560264,41.4349341 5.93312896,26.5077507 C7.21140191,21.169102 10.0442197,16.3542141 14.1243845,12.5827238 C15.169682,11.6176841 15.2315339,9.9866022 14.266644,8.94114261 C13.2996923,7.89568301 11.6688634,7.83175945 10.6256278,8.79679907 C5.79293128,13.2632004 2.43849562,18.9730182 0.921061917,25.3055753 C-1.13242174,33.8775191 0.273678515,42.7319639 4.87958463,50.2440138" id="Fill-1"></path>
                    <path d="M36.3923967,32.9986967 L44.6726394,24.7200237 C45.6091202,23.7837204 45.6091202,22.2656161 44.6726394,21.3272275 C43.7361585,20.3909242 42.2156807,20.3909242 41.2812856,21.3272275 L33.0010429,29.6079858 L24.7187144,21.3272275 C23.7822336,20.3909242 22.2659272,20.3909242 21.3273606,21.3272275 C20.3908798,22.2656161 20.3908798,23.7837204 21.3273606,24.7200237 L29.609689,32.9986967 L21.3273606,41.279455 C20.3908798,42.2157583 20.3908798,43.7338626 21.3273606,44.6722512 C21.7966439,45.1393602 22.4098407,45.375 23.0230375,45.375 C23.6383201,45.375 24.2515169,45.1393602 24.7187144,44.6722512 L33.0010429,36.3914929 L41.2812856,44.6722512 C41.7505688,45.1393602 42.3637656,45.375 42.9769625,45.375 C43.592245,45.375 44.2054418,45.1393602 44.6726394,44.6722512 C45.6091202,43.7338626 45.6091202,42.2157583 44.6726394,41.279455 L36.3923967,32.9986967 Z" id="Fill-4"></path>
                </g>
            </g>
        </g>
    </g>
</svg>