<?xml version="1.0" encoding="UTF-8"?>
<svg width="25px" height="25px" viewBox="0 0 25 25" version="1.1" xmlns="http://www.w3.org/2000/svg" xmlns:xlink="http://www.w3.org/1999/xlink">
    <title>Path</title>
    <g id="Page-1" stroke="none" stroke-width="1" fill="none" fill-rule="evenodd">
        <g id="upload" transform="translate(-169.000000, -281.000000)" fill="#8362A9">
            <path d="M191.134327,296.48264 L184.48264,296.48264 L184.48264,303.134327 C184.48264,304.716449 183.199089,306 181.616966,306 L181.383034,306 C179.800911,306 178.51736,304.716449 178.51736,303.134327 L178.51736,296.48264 L171.865673,296.48264 C170.283551,296.48264 169,295.199089 169,293.616966 L169,293.383034 C169,291.800911 170.283551,290.51736 171.865673,290.51736 L178.51736,290.51736 L178.51736,283.865673 C178.51736,282.283551 179.800911,281 181.383034,281 L181.616966,281 C183.199089,281 184.48264,282.283551 184.48264,283.865673 L184.48264,290.51736 L191.134327,290.51736 C192.716449,290.51736 194,291.800911 194,293.383034 L194,293.616966 C194,295.199089 192.716449,296.48264 191.134327,296.48264 Z" id="Path"></path>
        </g>
    </g>
</svg>