<?xml version="1.0" encoding="UTF-8"?>
<svg width="11px" height="11px" viewBox="0 0 11 11" version="1.1" xmlns="http://www.w3.org/2000/svg" xmlns:xlink="http://www.w3.org/1999/xlink">
    <title>Group 7</title>
    <defs>
        <path d="M2.85090143,0.0408588512 C2.78213897,0.068762457 2.72035242,0.109621308 2.66952799,0.162438848 L2.66952799,0.162438848 L0.162189708,2.66977713 C-0.0540632361,2.88503352 -0.0540632361,3.23582171 0.162189708,3.45207465 L0.162189708,3.45207465 C0.378442653,3.6683276 0.729230839,3.6683276 0.944487226,3.45207465 L0.944487226,3.45207465 L2.50708915,1.88947273 L2.50708915,6.40686719 C2.50708915,6.71181373 2.75622848,6.96095307 3.06117503,6.96095307 L3.06117503,6.96095307 C3.36612158,6.96095307 3.61426436,6.71181373 3.61426436,6.40686719 L3.61426436,6.40686719 L3.61426436,1.88947273 L5.17686628,3.45207465 C5.39212267,3.6683276 5.74390741,3.6683276 5.96016036,3.45207465 L5.96016036,3.45207465 C6.06479888,3.34743613 6.1225992,3.20891466 6.1225992,3.06042761 L6.1225992,3.06042761 C6.1225992,2.91293713 6.06479888,2.7734191 5.96016036,2.66977713 L5.96016036,2.66977713 L3.45381863,0.162438848 C3.40100109,0.109621308 3.34021109,0.0697590143 3.27344175,0.0418554086 L3.27344175,0.0418554086 C3.20467929,0.0139518029 3.13392372,0 3.06117503,0 L3.06117503,0 C2.98842635,0 2.91667422,0.0129552455 2.85090143,0.0408588512 L2.85090143,0.0408588512 Z" id="path-1"></path>
        <path d="M9.71643414,0.578003261 L9.71643414,3.02455155 C9.71643414,3.19496286 9.57890922,3.33448088 9.40849792,3.33448088 L9.40849792,3.33448088 L1.46194963,3.33448088 C1.29153832,3.33448088 1.15401341,3.19496286 1.15401341,3.02455155 L1.15401341,3.02455155 L1.15401341,0.578003261 C1.15401341,0.260101468 0.895905055,0 0.576010147,0 L0.576010147,0 C0.258108353,0 0,0.260101468 0,0.578003261 L0,0.578003261 L0,3.02455155 C0,3.831763 0.655734735,4.48849429 1.46194963,4.48849429 L1.46194963,4.48849429 L9.40849792,4.48849429 C10.2147128,4.48849429 10.8704475,3.831763 10.8704475,3.02455155 L10.8704475,3.02455155 L10.8704475,0.578003261 C10.8704475,0.260101468 10.6123392,0 10.2944374,0 L10.2944374,0 C9.97454249,0 9.71643414,0.260101468 9.71643414,0.578003261 L9.71643414,0.578003261 Z" id="path-3"></path>
    </defs>
    <g id="Page-1" stroke="none" stroke-width="1" fill="none" fill-rule="evenodd">
        <g id="USER-IN" transform="translate(-171.000000, -124.000000)">
            <g id="Group-5" transform="translate(160.000000, 117.000000)">
                <g id="Group-7" transform="translate(11.000000, 7.000000)">
                    <g id="Group-3" transform="translate(2.374049, 0.000000)">
                        <mask id="mask-2" fill="white">
                            <use xlink:href="#path-1"></use>
                        </mask>
                        <g id="Clip-2"></g>
                        <polygon id="Fill-1" fill="#FFFFFF" mask="url(#mask-2)" points="-0.430761913 7.33765175 6.49929788 7.33765175 6.49929788 -0.377695235 -0.430761913 -0.377695235"></polygon>
                    </g>
                    <g id="Group-6" transform="translate(0.000000, 6.511506)">
                        <mask id="mask-4" fill="white">
                            <use xlink:href="#path-3"></use>
                        </mask>
                        <g id="Clip-5"></g>
                        <polygon id="Fill-4" fill="#FFFFFF" mask="url(#mask-4)" points="-0.377695235 4.86519297 11.2481428 4.86519297 11.2481428 -0.37570212 -0.377695235 -0.37570212"></polygon>
                    </g>
                </g>
            </g>
        </g>
    </g>
</svg>