<?xml version="1.0" encoding="UTF-8"?>
<svg width="21px" height="17px" viewBox="0 0 21 17" version="1.1" xmlns="http://www.w3.org/2000/svg" xmlns:xlink="http://www.w3.org/1999/xlink">
    <title>Group 9</title>
    <defs>
        <polygon id="path-1" points="0 0 19.764 0 19.764 15.7565789 0 15.7565789"></polygon>
        <polygon id="path-3" points="0.25 0.25 0.75 0.25 0.75 0.75 0.25 0.75"></polygon>
    </defs>
    <g id="Page-1" stroke="none" stroke-width="1" fill="none" fill-rule="evenodd">
        <g id="email-log" transform="translate(-289.000000, -314.000000)">
            <g id="Group-9" transform="translate(289.000000, 314.000000)">
                <g id="Group-3" transform="translate(0.250000, 0.000000)">
                    <mask id="mask-2" fill="white">
                        <use xlink:href="#path-1"></use>
                    </mask>
                    <g id="Clip-2"></g>
                    <path d="M13.938,11.3025789 L6.377,2.84257894 C7.485,2.43357894 8.674,2.21657894 9.882,2.22057894 L9.882,2.21853921 C11.671,2.21357894 13.423,2.68057894 14.921,3.56457894 C16.42,4.44857894 17.599,5.70857894 18.312,7.19157894 C17.436,8.99157894 15.88,10.4405789 13.938,11.3025789 L13.938,11.3025789 Z M6.417,11.5505789 C4.196,10.7375789 2.414,9.17257894 1.45,7.19157894 C2.124,5.79157894 3.216,4.59357894 4.597,3.72057894 L6.41,5.74757894 C6.202,6.19957894 6.084,6.68857894 6.084,7.19057894 C6.084,8.14957894 6.485,9.06857894 7.197,9.74557894 C7.909,10.4245789 8.875,10.8045789 9.882,10.8045789 C10.201,10.8045789 10.509,10.7495789 10.811,10.6735789 L11.944,11.9415789 C10.111,12.3225789 8.182,12.1985789 6.417,11.5505789 L6.417,11.5505789 Z M19.662,6.96457894 C18.874,5.20557894 17.521,3.69957894 15.779,2.63957894 C14.037,1.57857894 11.983,1.01157894 9.882,1.01157894 C8.367,1.01157894 6.877,1.31157894 5.511,1.87357894 L4.122,0.318578944 C3.77,-0.0734210564 3.166,-0.109421056 2.771,0.242578944 C2.377,0.594578944 2.343,1.19857894 2.696,1.59257894 L3.762,2.78657894 C2.129,3.83757894 0.856,5.28257894 0.103,6.96457894 L0,7.19157894 L0.103,7.41857894 C0.885,9.18157894 2.236,10.6915789 3.979,11.7525789 C5.723,12.8135789 7.78,13.3775789 9.882,13.3715789 C10.902,13.3745789 11.909,13.2405789 12.876,12.9845789 L15.069,15.4385789 C15.258,15.6495789 15.519,15.7565789 15.783,15.7565789 C16.009,15.7565789 16.237,15.6765789 16.419,15.5135789 C16.813,15.1615789 16.847,14.5575789 16.495,14.1625789 L14.806,12.2735789 C15.14,12.1145789 15.469,11.9445789 15.785,11.7525789 C17.529,10.6915789 18.879,9.18157894 19.662,7.41857894 L19.764,7.19157894 L19.662,6.96457894 Z" id="Fill-1" fill="#929292" mask="url(#mask-2)"></path>
                </g>
                <g id="Group-6" transform="translate(0.000000, 15.006679)">
                    <mask id="mask-4" fill="white">
                        <use xlink:href="#path-3"></use>
                    </mask>
                    <g id="Clip-5"></g>
                    <path d="" id="Fill-4" fill="#000000" mask="url(#mask-4)"></path>
                </g>
                <path d="M10.1324,3.57597894 C9.8184,3.57597894 9.5114,3.62597894 9.2114,3.69797894 L13.6234,8.60797894 C13.8224,8.16397894 13.9294,7.68197894 13.9294,7.18997894 C13.9294,6.23197894 13.5294,5.31197894 12.8174,4.63497894 C12.1054,3.95697894 11.1394,3.57597894 10.1324,3.57597894" id="Fill-7" fill="#929292"></path>
            </g>
        </g>
    </g>
</svg>