<?xml version="1.0" encoding="UTF-8"?>
<svg width="20px" height="13px" viewBox="0 0 20 13" version="1.1" xmlns="http://www.w3.org/2000/svg" xmlns:xlink="http://www.w3.org/1999/xlink">
    <title>Group 6</title>
    <g id="Page-1" stroke="none" stroke-width="1" fill="none" fill-rule="evenodd">
        <g id="email-log" transform="translate(-330.000000, -316.000000)" fill="#929292">
            <g id="Group-6" transform="translate(330.000000, 315.999900)">
                <g id="Group-3">
                    <path d="M9.882,1.20696027 C11.672,1.202 13.424,1.669 14.922,2.553 C16.421,3.436 17.598,4.697 18.312,6.18 C17.348,8.161 15.566,9.726 13.344,10.539 C11.123,11.353 8.638,11.353 6.417,10.539 C4.196,9.726 2.414,8.161 1.449,6.18 C2.163,4.697 3.343,3.437 4.841,2.554 C6.34,1.67 8.092,1.203 9.882,1.209 L9.882,1.20696027 Z M9.882,12.3600474 C11.985,12.366 14.042,11.802 15.785,10.741 C17.529,9.68 18.88,8.17 19.662,6.407 L19.764,6.18 L19.662,5.953 C18.874,4.194 17.521,2.688 15.779,1.628 C14.037,0.567 11.984,0 9.882,0 C7.781,0 5.728,0.567 3.986,1.628 C2.243,2.688 0.891,4.194 0.103,5.953 L0,6.18 L0.103,6.407 C0.885,8.17 2.236,9.68 3.98,10.741 C5.723,11.802 7.779,12.366 9.882,12.3600474 Z" id="Fill-1"></path>
                </g>
                <path d="M9.882,9.793 C10.889,9.793 11.855,9.413 12.568,8.734 C13.279,8.057 13.68,7.138 13.68,6.179 C13.68,5.221 13.279,4.301 12.568,3.623 C11.855,2.945 10.889,2.564 9.882,2.564 C8.875,2.564 7.909,2.945 7.197,3.623 C6.485,4.301 6.085,5.221 6.085,6.179 C6.085,7.138 6.485,8.057 7.197,8.734 C7.909,9.413 8.875,9.793 9.882,9.793" id="Fill-4"></path>
            </g>
        </g>
    </g>
</svg>