<?xml version="1.0" encoding="UTF-8"?>
<svg width="17px" height="16px" viewBox="0 0 17 16" version="1.1" xmlns="http://www.w3.org/2000/svg" xmlns:xlink="http://www.w3.org/1999/xlink">
    <title>Group 3</title>
    <g id="Page-1" stroke="none" stroke-width="1" fill="none" fill-rule="evenodd">
        <g id="USER-IN" transform="translate(-39.000000, -248.000000)" fill="#A49FAD">
            <g id="SIDE-NEMU" transform="translate(0.000000, 184.000000)">
                <g id="Group-3" transform="translate(39.000000, 64.000000)">
                    <path d="M15.2072311,12.8789076 L10.068085,12.8784834 L4.87344419,12.8784834 C4.54678217,12.8784834 4.34204034,12.5217022 4.50474073,12.235344 L6.72705146,8.33578152 C6.89017226,8.04942331 7.29965592,8.04857484 7.46361756,8.33493305 L8.41501543,9.99411375 C8.57897707,10.2796235 8.98804032,10.2796235 9.15158153,9.99368951 L11.3528715,6.14800477 C11.5168332,5.86207079 11.925476,5.86207079 12.0890172,6.14800477 L15.5750938,12.2349198 C15.7390554,12.5208538 15.5343136,12.8789076 15.2072311,12.8789076 M3.24391782,8.42105263 C2.20297167,8.32008485 1.36802859,7.47840382 1.26670871,6.42799947 C1.13217609,5.03396527 2.29546284,3.86010871 3.67694469,3.99628795 C4.71705002,4.09852844 5.55115227,4.94020947 5.65163132,5.99061381 C5.78532311,7.38295108 4.62413843,8.5551107 3.24391782,8.42105263 M13.6626285,0 L3.22668083,0 C1.44454402,0 0,1.45724513 0,3.25557471 L0,12.7444253 C0,14.5423306 1.44454402,16 3.22668083,16 L13.6626285,16 C15.4443449,16 16.8888889,14.5423306 16.8888889,12.7444253 L16.8888889,3.25557471 C16.8888889,1.45724513 15.4443449,0 13.6626285,0" id="Fill-1"></path>
                </g>
            </g>
        </g>
    </g>
</svg>