<?xml version="1.0" encoding="UTF-8"?>
<svg width="43px" height="43px" viewBox="0 0 43 43" version="1.1" xmlns="http://www.w3.org/2000/svg" xmlns:xlink="http://www.w3.org/1999/xlink">
    <title>Group 5</title>
    <defs>
        <polygon id="path-1" points="1.01252091e-15 2.02504182e-15 7.82825927 2.02504182e-15 7.82825927 7.82818152 1.01252091e-15 7.82818152"></polygon>
        <polygon id="path-3" points="0 0 11.4524119 0 11.4524119 15.2595465 0 15.2595465"></polygon>
    </defs>
    <g id="Page-1" stroke="none" stroke-width="1" fill="none" fill-rule="evenodd">
        <g id="Android-Copy-10" transform="translate(-159.000000, -499.000000)">
            <g id="Group-7" transform="translate(106.000000, 499.000000)">
                <g id="Group-5" transform="translate(53.000000, 0.000000)">
                    <circle id="Oval" fill="#FFFFFF" cx="21.5" cy="21.5" r="21.5"></circle>
                    <g id="Group-7" transform="translate(15.000000, 13.000000)">
                        <g id="Group-3" transform="translate(4.818021, 8.457818)">
                            <mask id="mask-2" fill="white">
                                <use xlink:href="#path-1"></use>
                            </mask>
                            <g id="Clip-2"></g>
                            <path d="M6.39681521,5.49027526 L3.96520118,5.53473515 L7.50945248,1.90042408 C7.94493141,1.45582517 7.93353144,0.743326918 7.47981255,0.312407976 C7.02951366,-0.115090974 6.30675543,-0.102551005 5.86785651,0.342047903 L2.32588521,3.97635898 L2.28028532,1.58236486 C2.26774535,0.964486374 1.77412656,0.467447595 1.11634818,0.479987564 C0.810828931,0.487967545 0.528109625,0.609947245 0.31835014,0.821986724 C0.107450658,1.03972619 -0.00654906155,1.32472549 0.000290921652,1.62340476 L0.0971906837,6.72261223 C0.0994706781,6.87423186 0.130250602,7.01787151 0.191810451,7.15467117 C0.252230303,7.29147083 0.33887009,7.41345054 0.44488983,7.51377029 C0.554329561,7.61865003 0.679729253,7.69844984 0.81538892,7.74860971 C0.949908589,7.80104958 1.09012824,7.82840952 1.2314879,7.82840952 L1.25770783,7.82840952 L6.43785511,7.73264975 C7.06485357,7.72238978 7.56759234,7.20939104 7.55619236,6.59037256 C7.55049238,6.29055329 7.42509269,6.01125398 7.20621322,5.80263449 C6.98847376,5.596295 6.70005447,5.49255525 6.39681521,5.49027526" id="Fill-1" fill="#000000" mask="url(#mask-2)"></path>
                        </g>
                        <g id="Group-6">
                            <mask id="mask-4" fill="white">
                                <use xlink:href="#path-3"></use>
                            </mask>
                            <g id="Clip-5"></g>
                            <path d="M2.55131373,14.1195493 C1.77269565,14.1195493 1.1399972,13.4868509 1.1399972,12.7093728 L1.1399972,2.55085773 C1.1399972,1.77223965 1.77269565,1.1395412 2.55131373,1.1395412 L8.89995814,1.1395412 C9.67857623,1.1395412 10.3124147,1.77223965 10.3124147,2.55085773 L10.3124147,6.58302783 C10.3124147,6.89766706 10.566634,7.15302643 10.8824133,7.15302643 C11.1970525,7.15302643 11.4524119,6.89766706 11.4524119,6.58302783 L11.4524119,2.55085773 C11.4524119,1.14410119 10.3078547,-0.00045599888 8.89995814,-0.00045599888 L2.55131373,-0.00045599888 C1.14455719,-0.00045599888 0,1.14410119 0,2.55085773 L0,12.7093728 C0,14.1149893 1.14455719,15.2595465 2.63909352,15.2595465 C2.95487274,15.2595465 3.16577222,15.0041871 3.16577222,14.6895479 C3.16577222,14.3749087 2.86595296,14.1195493 2.55131373,14.1195493" id="Fill-4" fill="#000000" mask="url(#mask-4)"></path>
                        </g>
                    </g>
                </g>
            </g>
        </g>
    </g>
</svg>