<?xml version="1.0" encoding="UTF-8"?>
<svg width="79px" height="64px" viewBox="0 0 79 64" version="1.1" xmlns="http://www.w3.org/2000/svg" xmlns:xlink="http://www.w3.org/1999/xlink">
    <title>Group 15</title>
    <g id="Page-1" stroke="none" stroke-width="1" fill="none" fill-rule="evenodd">
        <g id="no-internet" transform="translate(-145.000000, -269.000000)" fill="#DAD8DF">
            <g id="Group-15" transform="translate(145.000000, 269.000000)">
                <polygon id="Fill-1" points="39.00005 15 38.99975 15 39.00025 15"></polygon>
                <path d="M39.4986028,14 C28.8269408,14.0006027 18.7498437,18.7448772 11.8471489,27.0178266 C10.5635108,28.5558587 10.7603034,30.8520586 12.2903808,32.1448011 C12.9674909,32.7173444 13.7911487,32.9987946 14.6124139,32.9987946 C15.643631,32.9987946 16.666474,32.5570323 17.3794734,31.7000254 C22.9016293,25.0796168 30.9659388,21.2809427 39.4986028,21.2809427 C48.032463,21.2809427 56.0955763,25.0790141 61.6201248,31.7012307 C62.3361149,32.561251 63.359556,33 64.3877824,33 C65.2090476,33 66.0327054,32.7209605 66.7098155,32.1460065 C68.2392947,30.853264 68.4366855,28.5546533 67.1530474,27.0190319 C60.24796,18.7454799 50.1702647,14.0006027 39.4986028,14" id="Fill-2"></path>
                <path d="M78.1537177,18.070054 L78.1537177,18.0694565 C68.5056099,6.58418183 54.4171629,0 39.4997728,0 C24.5817856,0 10.4951302,6.58418183 0.845827985,18.0694565 C-0.435808615,19.5948119 -0.239322854,21.8705967 1.28836886,23.153377 C1.96442321,23.7215763 2.78440786,24 3.60379528,24 C4.63280733,24 5.65524995,23.5614529 6.36892923,22.7124399 C14.6416367,12.866041 26.7180457,7.21750604 39.4991756,7.21750604 C52.2803056,7.21750604 64.357909,12.8666385 72.629422,22.711245 C73.3442957,23.5596604 74.3661411,23.998805 75.3951532,23.998805 C76.2151378,23.998805 77.0375113,23.7215763 77.7135657,23.152182 C79.2388685,21.8705967 79.4359515,19.592422 78.1537177,18.070054" id="Fill-4"></path>
                <path d="M39.4994983,29 C33.0711713,29 27.0017742,31.6843071 22.8500713,36.3615348 C21.562005,37.8119128 21.7594765,39.9758336 23.2948323,41.19556 C23.9742783,41.7358301 24.8007774,42 25.6248758,42 C26.6584499,42 27.6866221,41.5835773 28.4020811,40.7762968 C31.1738845,37.6522746 35.2199491,35.8616003 39.5000985,35.8616003 C43.7808481,35.8616003 47.8263125,37.6522746 50.5981159,40.7762968 C51.316576,41.5858498 52.3435477,42 53.3753212,42 C54.1994195,42 55.0259187,41.7369663 55.7053647,41.19556 C57.2401202,39.9758336 57.4381919,37.8119128 56.1501257,36.3615348 C51.9978226,31.6843071 45.9284255,29 39.4994983,29" id="Fill-9"></path>
                <path d="M48.0449494,45.9072912 C46.7715485,44.6975696 44.7065905,44.6975696 43.4331896,45.9072912 L39.0002273,50.1185736 L34.5672649,45.9072912 C33.2938641,44.6975696 31.2289061,44.6975696 29.9555052,45.9072912 C28.6814983,47.1175887 28.6814983,49.0787081 29.9555052,50.2884298 L34.3884676,54.5002879 L29.9555052,58.7109944 C28.6814983,59.9212919 28.6814983,61.8824113 29.9555052,63.0927088 C31.2289061,64.3024304 33.2938641,64.3024304 34.5672649,63.0927088 L39.0002273,58.8808506 L43.4331896,63.0927088 C44.7065905,64.3024304 46.7715485,64.3024304 48.0449494,63.0927088 C49.3183502,61.8824113 49.3183502,59.9212919 48.0449494,58.7109944 L43.611987,54.5002879 L48.0449494,50.2884298 C49.3183502,49.0787081 49.3183502,47.1175887 48.0449494,45.9072912" id="Fill-11"></path>
            </g>
        </g>
    </g>
</svg>